<svg width="385" height="217" viewBox="0 0 385 217" fill="none" xmlns="http://www.w3.org/2000/svg">
<mask id="path-1-inside-1_252_3071" fill="white">
<path fill-rule="evenodd" clip-rule="evenodd" d="M189.789 0H54.2253V7.48273H48.8027V112.241L54.2253 112.241H189.789L195.211 112.241V7.48273H189.789V0Z"/>
</mask>
<path fill-rule="evenodd" clip-rule="evenodd" d="M189.789 0H54.2253V7.48273H48.8027V112.241L54.2253 112.241H189.789L195.211 112.241V7.48273H189.789V0Z" fill="#D9D9D9"/>
<path d="M54.2253 0V-10H44.2253V0H54.2253ZM189.789 0H199.789V-10H189.789V0ZM54.2253 7.48273V17.4827H64.2253V7.48273H54.2253ZM48.8027 7.48273V-2.51727H38.8027V7.48273H48.8027ZM48.8027 112.241H38.8027V122.241L48.8027 122.241L48.8027 112.241ZM54.2253 112.241L54.2253 122.241H54.2253V112.241ZM189.789 112.241V122.241H189.789L189.789 112.241ZM195.211 112.241L195.211 122.241L205.211 122.241V112.241H195.211ZM195.211 7.48273H205.211V-2.51727H195.211V7.48273ZM189.789 7.48273H179.789V17.4827H189.789V7.48273ZM54.2253 10H189.789V-10H54.2253V10ZM64.2253 7.48273V0H44.2253V7.48273H64.2253ZM48.8027 17.4827H54.2253V-2.51727H48.8027V17.4827ZM58.8027 112.241V7.48273H38.8027V112.241H58.8027ZM54.2254 102.241L48.8028 102.241L48.8027 122.241L54.2253 122.241L54.2254 102.241ZM189.789 102.241H54.2253V122.241H189.789V102.241ZM195.211 102.241L189.789 102.241L189.789 122.241L195.211 122.241L195.211 102.241ZM185.211 7.48273V112.241H205.211V7.48273H185.211ZM189.789 17.4827H195.211V-2.51727H189.789V17.4827ZM179.789 0V7.48273H199.789V0H179.789Z" fill="black" mask="url(#path-1-inside-1_252_3071)"/>
<rect x="61.415" y="15.3906" width="120.927" height="81.6636" fill="#CE7D4F" stroke="#AC5E31" stroke-width="15"/>
<rect x="121.499" y="53.2637" width="5.31558" height="6.90455" fill="black"/>
<mask id="path-5-inside-2_252_3071" fill="white">
<path fill-rule="evenodd" clip-rule="evenodd" d="M189.789 104.759H54.2253V108.75H48.8027V164.621H195.211V108.75H189.789V104.759Z"/>
</mask>
<path fill-rule="evenodd" clip-rule="evenodd" d="M189.789 104.759H54.2253V108.75H48.8027V164.621H195.211V108.75H189.789V104.759Z" fill="#D9D9D9"/>
<path d="M54.2253 104.759V94.7588H44.2253V104.759H54.2253ZM189.789 104.759H199.789V94.7588H189.789V104.759ZM54.2253 108.75V118.75H64.2253V108.75H54.2253ZM48.8027 108.75V98.7496H38.8027V108.75H48.8027ZM48.8027 164.621H38.8027V174.621H48.8027V164.621ZM195.211 164.621V174.621H205.211V164.621H195.211ZM195.211 108.75H205.211V98.7496H195.211V108.75ZM189.789 108.75H179.789V118.75H189.789V108.75ZM54.2253 114.759H189.789V94.7588H54.2253V114.759ZM64.2253 108.75V104.759H44.2253V108.75H64.2253ZM48.8027 118.75H54.2253V98.7496H48.8027V118.75ZM58.8027 164.621V108.75H38.8027V164.621H58.8027ZM195.211 154.621H48.8027V174.621H195.211V154.621ZM185.211 108.75V164.621H205.211V108.75H185.211ZM189.789 118.75H195.211V98.7496H189.789V118.75ZM179.789 104.759V108.75H199.789V104.759H179.789Z" fill="black" mask="url(#path-5-inside-2_252_3071)"/>
<mask id="path-7-inside-3_252_3071" fill="white">
<path d="M53.915 112.445H189.842V156.832H53.915V112.445Z"/>
</mask>
<path d="M53.915 112.445H189.842V156.832H53.915V112.445Z" fill="#CE7D4F"/>
<path d="M189.842 141.832H53.915V171.832H189.842V141.832Z" fill="#AC5E31" mask="url(#path-7-inside-3_252_3071)"/>
<mask id="path-9-inside-4_252_3071" fill="white">
<path fill-rule="evenodd" clip-rule="evenodd" d="M330.775 104.759H195.212V108.75H189.789V164.621H336.197V108.75H330.775V104.759Z"/>
</mask>
<path fill-rule="evenodd" clip-rule="evenodd" d="M330.775 104.759H195.212V108.75H189.789V164.621H336.197V108.75H330.775V104.759Z" fill="#D9D9D9"/>
<path d="M195.212 104.759V94.7588H185.212V104.759H195.212ZM330.775 104.759H340.775V94.7588H330.775V104.759ZM195.212 108.75V118.75H205.212V108.75H195.212ZM189.789 108.75V98.7496H179.789V108.75H189.789ZM189.789 164.621H179.789V174.621H189.789V164.621ZM336.197 164.621V174.621H346.197V164.621H336.197ZM336.197 108.75H346.197V98.7496H336.197V108.75ZM330.775 108.75H320.775V118.75H330.775V108.75ZM195.212 114.759H330.775V94.7588H195.212V114.759ZM205.212 108.75V104.759H185.212V108.75H205.212ZM189.789 118.75H195.212V98.7496H189.789V118.75ZM199.789 164.621V108.75H179.789V164.621H199.789ZM336.197 154.621H189.789V174.621H336.197V154.621ZM326.197 108.75V164.621H346.197V108.75H326.197ZM330.775 118.75H336.197V98.7496H330.775V118.75ZM320.775 104.759V108.75H340.775V104.759H320.775Z" fill="black" mask="url(#path-9-inside-4_252_3071)"/>
<mask id="path-11-inside-5_252_3071" fill="white">
<path d="M195.157 112.445H331.084V156.832H195.157V112.445Z"/>
</mask>
<path d="M195.157 112.445H331.084V156.832H195.157V112.445Z" fill="#CE7D4F"/>
<path d="M331.084 141.832H195.157V171.832H331.084V141.832Z" fill="#AC5E31" mask="url(#path-11-inside-5_252_3071)"/>
<mask id="path-13-inside-6_252_3071" fill="white">
<path fill-rule="evenodd" clip-rule="evenodd" d="M189.789 157.138H54.2253V161.129H48.8027V217H195.211V161.129H189.789V157.138Z"/>
</mask>
<path fill-rule="evenodd" clip-rule="evenodd" d="M189.789 157.138H54.2253V161.129H48.8027V217H195.211V161.129H189.789V157.138Z" fill="#D9D9D9"/>
<path d="M54.2253 157.138V147.138H44.2253V157.138H54.2253ZM189.789 157.138H199.789V147.138H189.789V157.138ZM54.2253 161.129V171.129H64.2253V161.129H54.2253ZM48.8027 161.129V151.129H38.8027V161.129H48.8027ZM48.8027 217H38.8027V227H48.8027V217ZM195.211 217V227H205.211V217H195.211ZM195.211 161.129H205.211V151.129H195.211V161.129ZM189.789 161.129H179.789V171.129H189.789V161.129ZM54.2253 167.138H189.789V147.138H54.2253V167.138ZM64.2253 161.129V157.138H44.2253V161.129H64.2253ZM48.8027 171.129H54.2253V151.129H48.8027V171.129ZM58.8027 217V161.129H38.8027V217H58.8027ZM195.211 207H48.8027V227H195.211V207ZM185.211 161.129V217H205.211V161.129H185.211ZM189.789 171.129H195.211V151.129H189.789V171.129ZM179.789 157.138V161.129H199.789V157.138H179.789Z" fill="black" mask="url(#path-13-inside-6_252_3071)"/>
<mask id="path-15-inside-7_252_3071" fill="white">
<path d="M53.915 164.723H189.842V209.109H53.915V164.723Z"/>
</mask>
<path d="M53.915 164.723H189.842V209.109H53.915V164.723Z" fill="#AC5E31"/>
<path d="M189.842 194.109H53.915V224.109H189.842V194.109Z" fill="#AC5E31" mask="url(#path-15-inside-7_252_3071)"/>
<mask id="path-17-inside-8_252_3071" fill="white">
<path fill-rule="evenodd" clip-rule="evenodd" d="M330.775 157.138H195.212V161.129H189.789V217H336.197V161.129H330.775V157.138Z"/>
</mask>
<path fill-rule="evenodd" clip-rule="evenodd" d="M330.775 157.138H195.212V161.129H189.789V217H336.197V161.129H330.775V157.138Z" fill="#D9D9D9"/>
<path d="M195.212 157.138V147.138H185.212V157.138H195.212ZM330.775 157.138H340.775V147.138H330.775V157.138ZM195.212 161.129V171.129H205.212V161.129H195.212ZM189.789 161.129V151.129H179.789V161.129H189.789ZM189.789 217H179.789V227H189.789V217ZM336.197 217V227H346.197V217H336.197ZM336.197 161.129H346.197V151.129H336.197V161.129ZM330.775 161.129H320.775V171.129H330.775V161.129ZM195.212 167.138H330.775V147.138H195.212V167.138ZM205.212 161.129V157.138H185.212V161.129H205.212ZM189.789 171.129H195.212V151.129H189.789V171.129ZM199.789 217V161.129H179.789V217H199.789ZM336.197 207H189.789V227H336.197V207ZM326.197 161.129V217H346.197V161.129H326.197ZM330.775 171.129H336.197V151.129H330.775V171.129ZM320.775 157.138V161.129H340.775V157.138H320.775Z" fill="black" mask="url(#path-17-inside-8_252_3071)"/>
<mask id="path-19-inside-9_252_3071" fill="white">
<path d="M195.157 164.723H331.084V209.109H195.157V164.723Z"/>
</mask>
<path d="M195.157 164.723H331.084V209.109H195.157V164.723Z" fill="#AC5E31"/>
<path d="M331.084 194.109H195.157V224.109H331.084V194.109Z" fill="#AC5E31" mask="url(#path-19-inside-9_252_3071)"/>
<mask id="path-21-inside-10_252_3071" fill="white">
<path fill-rule="evenodd" clip-rule="evenodd" d="M330.775 0H195.212V7.48273H189.789V112.241L195.212 112.241H330.775L336.197 112.241V7.48273H330.775V0Z"/>
</mask>
<path fill-rule="evenodd" clip-rule="evenodd" d="M330.775 0H195.212V7.48273H189.789V112.241L195.212 112.241H330.775L336.197 112.241V7.48273H330.775V0Z" fill="#D9D9D9"/>
<path d="M195.212 0V-10H185.212V0H195.212ZM330.775 0H340.775V-10H330.775V0ZM195.212 7.48273V17.4827H205.212V7.48273H195.212ZM189.789 7.48273V-2.51727H179.789V7.48273H189.789ZM189.789 112.241H179.789V122.241L189.789 122.241L189.789 112.241ZM195.212 112.241L195.212 122.241H195.212V112.241ZM330.775 112.241V122.241H330.775L330.775 112.241ZM336.197 112.241L336.197 122.241L346.197 122.241V112.241H336.197ZM336.197 7.48273H346.197V-2.51727H336.197V7.48273ZM330.775 7.48273H320.775V17.4827H330.775V7.48273ZM195.212 10H330.775V-10H195.212V10ZM205.212 7.48273V0H185.212V7.48273H205.212ZM189.789 17.4827H195.212V-2.51727H189.789V17.4827ZM199.789 112.241V7.48273H179.789V112.241H199.789ZM195.212 102.241L189.789 102.241L189.789 122.241L195.212 122.241L195.212 102.241ZM330.775 102.241H195.212V122.241H330.775V102.241ZM336.197 102.241L330.775 102.241L330.775 122.241L336.197 122.241L336.197 102.241ZM326.197 7.48273V112.241H346.197V7.48273H326.197ZM330.775 17.4827H336.197V-2.51727H330.775V17.4827ZM320.775 0V7.48273H340.775V0H320.775Z" fill="black" mask="url(#path-21-inside-10_252_3071)"/>
<rect x="202.657" y="15.3906" width="120.927" height="81.6636" fill="#CE7D4F" stroke="#AC5E31" stroke-width="15"/>
<rect x="262.741" y="53.2637" width="5.31558" height="6.90455" fill="black"/>
<mask id="path-25-inside-11_252_3071" fill="white">
<path fill-rule="evenodd" clip-rule="evenodd" d="M382.991 104.759H332.783V112.242H330.774V217L332.783 217H382.991L385 217V112.242H382.991V104.759Z"/>
</mask>
<path fill-rule="evenodd" clip-rule="evenodd" d="M382.991 104.759H332.783V112.242H330.774V217L332.783 217H382.991L385 217V112.242H382.991V104.759Z" fill="#D9D9D9"/>
<path d="M332.783 104.759V94.7588H322.783V104.759H332.783ZM382.991 104.759H392.991V94.7588H382.991V104.759ZM332.783 112.242V122.242H342.783V112.242H332.783ZM330.774 112.242V102.242H320.774V112.242H330.774ZM330.774 217H320.774V227L330.774 227L330.774 217ZM332.783 217L332.783 227H332.783V217ZM382.991 217V227H382.992L382.991 217ZM385 217L385 227L395 227V217H385ZM385 112.242H395V102.242H385V112.242ZM382.991 112.242H372.991V122.242H382.991V112.242ZM332.783 114.759H382.991V94.7588H332.783V114.759ZM342.783 112.242V104.759H322.783V112.242H342.783ZM330.774 122.242H332.783V102.242H330.774V122.242ZM340.774 217V112.242H320.774V217H340.774ZM332.783 207L330.775 207L330.774 227L332.783 227L332.783 207ZM382.991 207H332.783V227H382.991V207ZM385 207L382.991 207L382.992 227L385 227L385 207ZM375 112.242V217H395V112.242H375ZM382.991 122.242H385V102.242H382.991V122.242ZM372.991 104.759V112.242H392.991V104.759H372.991Z" fill="black" mask="url(#path-25-inside-11_252_3071)"/>
<mask id="path-27-inside-12_252_3071" fill="white">
<path d="M336.4 112.445H379.684V209.109H336.4V112.445Z"/>
</mask>
<path d="M336.4 112.445H379.684V209.109H336.4V112.445Z" fill="#CE7D4F"/>
<path d="M379.684 119.109H336.4V299.109H379.684V119.109Z" fill="#AC5E31" mask="url(#path-27-inside-12_252_3071)"/>
<mask id="path-29-inside-13_252_3071" fill="white">
<path fill-rule="evenodd" clip-rule="evenodd" d="M52.2171 104.759H2.00844V112.242H0V217L2.00844 217H52.2171L54.2253 217V112.242H52.2171V104.759Z"/>
</mask>
<path fill-rule="evenodd" clip-rule="evenodd" d="M52.2171 104.759H2.00844V112.242H0V217L2.00844 217H52.2171L54.2253 217V112.242H52.2171V104.759Z" fill="#D9D9D9"/>
<path d="M2.00844 104.759V94.7588H-7.99156V104.759H2.00844ZM52.2171 104.759H62.2171V94.7588H52.2171V104.759ZM2.00844 112.242V122.242H12.0084V112.242H2.00844ZM0 112.242V102.242H-10V112.242H0ZM0 217H-10V227L-7.59735e-05 227L0 217ZM2.00844 217L2.00836 227H2.00844V217ZM52.2171 217V227H52.2171L52.2171 217ZM54.2253 217L54.2254 227L64.2253 227V217H54.2253ZM54.2253 112.242H64.2253V102.242H54.2253V112.242ZM52.2171 112.242H42.2171V122.242H52.2171V112.242ZM2.00844 114.759H52.2171V94.7588H2.00844V114.759ZM12.0084 112.242V104.759H-7.99156V112.242H12.0084ZM0 122.242H2.00844V102.242H0V122.242ZM10 217V112.242H-10V217H10ZM2.00851 207L7.59735e-05 207L-7.59735e-05 227L2.00836 227L2.00851 207ZM52.2171 207H2.00844V227H52.2171V207ZM54.2252 207L52.217 207L52.2171 227L54.2254 227L54.2252 207ZM44.2253 112.242V217H64.2253V112.242H44.2253ZM52.2171 122.242H54.2253V102.242H52.2171V122.242ZM42.2171 104.759V112.242H62.2171V104.759H42.2171Z" fill="black" mask="url(#path-29-inside-13_252_3071)"/>
<mask id="path-31-inside-14_252_3071" fill="white">
<path d="M5.31543 112.445H48.5994V209.109H5.31543V112.445Z"/>
</mask>
<path d="M5.31543 112.445H48.5994V209.109H5.31543V112.445Z" fill="#CE7D4F"/>
<path d="M48.5994 119.109H5.31543V299.109H48.5994V119.109Z" fill="#AC5E31" mask="url(#path-31-inside-14_252_3071)"/>
</svg>
