<svg width="100" height="100" viewBox="0 0 100 100" fill="none" xmlns="http://www.w3.org/2000/svg">
<mask id="path-1-inside-1_793_4538" fill="white">
<path fill-rule="evenodd" clip-rule="evenodd" d="M7.5001 0H92.5001V5.33447H96.9173V11.9995H100V87.9995H96.9173V94.6678H92.5001V100H7.5001V94.6678H3.58398V87.9995H0V11.9995H3.58398V5.33447H7.5001V0Z"/>
</mask>
<path fill-rule="evenodd" clip-rule="evenodd" d="M7.5001 0H92.5001V5.33447H96.9173V11.9995H100V87.9995H96.9173V94.6678H92.5001V100H7.5001V94.6678H3.58398V87.9995H0V11.9995H3.58398V5.33447H7.5001V0Z" fill="#D9D9D9" fill-opacity="0.89"/>
<path d="M92.5001 0H97.5001V-5H92.5001V0ZM7.5001 0V-5H2.5001V0H7.5001ZM92.5001 5.33447H87.5001V10.3345H92.5001V5.33447ZM96.9173 5.33447H101.917V0.334473H96.9173V5.33447ZM96.9173 11.9995H91.9173V16.9995H96.9173V11.9995ZM100 11.9995H105V6.99951H100V11.9995ZM100 87.9995V92.9995H105V87.9995H100ZM96.9173 87.9995V82.9995H91.9173V87.9995H96.9173ZM96.9173 94.6678V99.6678H101.917V94.6678H96.9173ZM92.5001 94.6678V89.6678H87.5001V94.6678H92.5001ZM92.5001 100V105H97.5001V100H92.5001ZM7.5001 100H2.5001V105H7.5001V100ZM7.5001 94.6678H12.5001V89.6678H7.5001V94.6678ZM3.58398 94.6678H-1.41602V99.6678H3.58398V94.6678ZM3.58398 87.9995H8.58398V82.9995H3.58398V87.9995ZM0 87.9995H-5V92.9995H0V87.9995ZM0 11.9995V6.99951H-5V11.9995H0ZM3.58398 11.9995V16.9995H8.58398V11.9995H3.58398ZM3.58398 5.33447V0.334473H-1.41602V5.33447H3.58398ZM7.5001 5.33447V10.3345H12.5001V5.33447H7.5001ZM92.5001 -5H7.5001V5H92.5001V-5ZM97.5001 5.33447V0H87.5001V5.33447H97.5001ZM92.5001 10.3345H96.9173V0.334473H92.5001V10.3345ZM91.9173 5.33447V11.9995H101.917V5.33447H91.9173ZM100 6.99951H96.9173V16.9995H100V6.99951ZM105 87.9995V11.9995H95V87.9995H105ZM96.9173 92.9995H100V82.9995H96.9173V92.9995ZM91.9173 87.9995V94.6678H101.917V87.9995H91.9173ZM96.9173 89.6678H92.5001V99.6678H96.9173V89.6678ZM97.5001 100V94.6678H87.5001V100H97.5001ZM7.5001 105H92.5001V95H7.5001V105ZM2.5001 94.6678V100H12.5001V94.6678H2.5001ZM7.5001 89.6678H3.58398V99.6678H7.5001V89.6678ZM8.58398 94.6678V87.9995H-1.41602V94.6678H8.58398ZM0 92.9995H3.58398V82.9995H0V92.9995ZM-5 11.9995V87.9995H5V11.9995H-5ZM3.58398 6.99951H0V16.9995H3.58398V6.99951ZM8.58398 11.9995V5.33447H-1.41602V11.9995H8.58398ZM3.58398 10.3345H7.5001V0.334473H3.58398V10.3345ZM2.5001 0V5.33447H12.5001V0H2.5001Z" fill="black" mask="url(#path-1-inside-1_793_4538)"/>
</svg>
