<svg width="100" height="100" viewBox="0 0 100 100" fill="none" xmlns="http://www.w3.org/2000/svg">
<mask id="path-1-inside-1_252_2440" fill="white">
<path fill-rule="evenodd" clip-rule="evenodd" d="M69.2308 0H30.7692V7.69231H15.3846V15.3846H7.69231V30.7692H0V69.2308H7.69231V84.6154H15.3846V92.3077H30.7692V100H69.2308V92.3077H84.6154V84.6154H92.3077V69.2308H100V30.7692H92.3077V15.3846H84.6154V7.69231H69.2308V0Z"/>
</mask>
<path fill-rule="evenodd" clip-rule="evenodd" d="M69.2308 0H30.7692V7.69231H15.3846V15.3846H7.69231V30.7692H0V69.2308H7.69231V84.6154H15.3846V92.3077H30.7692V100H69.2308V92.3077H84.6154V84.6154H92.3077V69.2308H100V30.7692H92.3077V15.3846H84.6154V7.69231H69.2308V0Z" fill="#D9D9D9"/>
<path d="M30.7692 0V-10H20.7692V0H30.7692ZM69.2308 0H79.2308V-10H69.2308V0ZM30.7692 7.69231V17.6923H40.7692V7.69231H30.7692ZM15.3846 7.69231V-2.30769H5.38461V7.69231H15.3846ZM15.3846 15.3846V25.3846H25.3846V15.3846H15.3846ZM7.69231 15.3846V5.38461H-2.30769V15.3846H7.69231ZM7.69231 30.7692V40.7692H17.6923V30.7692H7.69231ZM0 30.7692V20.7692H-10V30.7692H0ZM0 69.2308H-10V79.2308H0V69.2308ZM7.69231 69.2308H17.6923V59.2308H7.69231V69.2308ZM7.69231 84.6154H-2.30769V94.6154H7.69231V84.6154ZM15.3846 84.6154H25.3846V74.6154H15.3846V84.6154ZM15.3846 92.3077H5.38461V102.308H15.3846V92.3077ZM30.7692 92.3077H40.7692V82.3077H30.7692V92.3077ZM30.7692 100H20.7692V110H30.7692V100ZM69.2308 100V110H79.2308V100H69.2308ZM69.2308 92.3077V82.3077H59.2308V92.3077H69.2308ZM84.6154 92.3077V102.308H94.6154V92.3077H84.6154ZM84.6154 84.6154V74.6154H74.6154V84.6154H84.6154ZM92.3077 84.6154V94.6154H102.308V84.6154H92.3077ZM92.3077 69.2308V59.2308H82.3077V69.2308H92.3077ZM100 69.2308V79.2308H110V69.2308H100ZM100 30.7692H110V20.7692H100V30.7692ZM92.3077 30.7692H82.3077V40.7692H92.3077V30.7692ZM92.3077 15.3846H102.308V5.38461H92.3077V15.3846ZM84.6154 15.3846H74.6154V25.3846H84.6154V15.3846ZM84.6154 7.69231H94.6154V-2.30769H84.6154V7.69231ZM69.2308 7.69231H59.2308V17.6923H69.2308V7.69231ZM30.7692 10H69.2308V-10H30.7692V10ZM40.7692 7.69231V0H20.7692V7.69231H40.7692ZM15.3846 17.6923H30.7692V-2.30769H15.3846V17.6923ZM25.3846 15.3846V7.69231H5.38461V15.3846H25.3846ZM7.69231 25.3846H15.3846V5.38461H7.69231V25.3846ZM17.6923 30.7692V15.3846H-2.30769V30.7692H17.6923ZM0 40.7692H7.69231V20.7692H0V40.7692ZM10 69.2308V30.7692H-10V69.2308H10ZM7.69231 59.2308H0V79.2308H7.69231V59.2308ZM17.6923 84.6154V69.2308H-2.30769V84.6154H17.6923ZM15.3846 74.6154H7.69231V94.6154H15.3846V74.6154ZM25.3846 92.3077V84.6154H5.38461V92.3077H25.3846ZM30.7692 82.3077H15.3846V102.308H30.7692V82.3077ZM40.7692 100V92.3077H20.7692V100H40.7692ZM69.2308 90H30.7692V110H69.2308V90ZM59.2308 92.3077V100H79.2308V92.3077H59.2308ZM84.6154 82.3077H69.2308V102.308H84.6154V82.3077ZM74.6154 84.6154V92.3077H94.6154V84.6154H74.6154ZM92.3077 74.6154H84.6154V94.6154H92.3077V74.6154ZM82.3077 69.2308V84.6154H102.308V69.2308H82.3077ZM100 59.2308H92.3077V79.2308H100V59.2308ZM90 30.7692V69.2308H110V30.7692H90ZM92.3077 40.7692H100V20.7692H92.3077V40.7692ZM82.3077 15.3846V30.7692H102.308V15.3846H82.3077ZM84.6154 25.3846H92.3077V5.38461H84.6154V25.3846ZM74.6154 7.69231V15.3846H94.6154V7.69231H74.6154ZM69.2308 17.6923H84.6154V-2.30769H69.2308V17.6923ZM59.2308 0V7.69231H79.2308V0H59.2308Z" fill="black" mask="url(#path-1-inside-1_252_2440)"/>
<path fill-rule="evenodd" clip-rule="evenodd" d="M50.0008 23.0762H65.3854V30.7685H57.6931V38.4608H50.0008V46.1531H42.3084V53.8454H50.0008V61.5377H57.6931V69.23L65.3854 69.23V76.9223H50.0008V69.23L42.3084 69.23V61.5377H34.6161V53.8454H26.9238V46.1531H34.6161V38.4608H42.3084V30.7685H50.0008V23.0762Z" fill="black"/>
</svg>
