<svg width="382" height="102" viewBox="0 0 382 102" fill="none" xmlns="http://www.w3.org/2000/svg">
<mask id="path-1-inside-1_74_77" fill="white">
<path fill-rule="evenodd" clip-rule="evenodd" d="M25.6359 0H355.079V9.58984H366.618V20.9231H382V81.9487H366.618V90.6668H355.079V102H25.6359V90.6668H16.665V81.9487H0V20.9231H16.665V9.58984H25.6359V0Z"/>
</mask>
<path fill-rule="evenodd" clip-rule="evenodd" d="M25.6359 0H355.079V9.58984H366.618V20.9231H382V81.9487H366.618V90.6668H355.079V102H25.6359V90.6668H16.665V81.9487H0V20.9231H16.665V9.58984H25.6359V0Z" fill="#C4C4C4"/>
<path d="M355.079 0H365.079V-10H355.079V0ZM25.6359 0V-10H15.6359V0H25.6359ZM355.079 9.58984H345.079V19.5898H355.079V9.58984ZM366.618 9.58984H376.618V-0.410156H366.618V9.58984ZM366.618 20.9231H356.618V30.9231H366.618V20.9231ZM382 20.9231H392V10.9231H382V20.9231ZM382 81.9487V91.9487H392V81.9487H382ZM366.618 81.9487V71.9487H356.618V81.9487H366.618ZM366.618 90.6668V100.667H376.618V90.6668H366.618ZM355.079 90.6668V80.6668H345.079V90.6668H355.079ZM355.079 102V112H365.079V102H355.079ZM25.6359 102H15.6359V112H25.6359V102ZM25.6359 90.6668H35.6359V80.6668H25.6359V90.6668ZM16.665 90.6668H6.66498V100.667H16.665V90.6668ZM16.665 81.9487H26.665V71.9487H16.665V81.9487ZM0 81.9487H-10V91.9487H0V81.9487ZM0 20.9231V10.9231H-10V20.9231H0ZM16.665 20.9231V30.9231H26.665V20.9231H16.665ZM16.665 9.58984V-0.410156H6.66498V9.58984H16.665ZM25.6359 9.58984V19.5898H35.6359V9.58984H25.6359ZM355.079 -10H25.6359V10H355.079V-10ZM365.079 9.58984V0H345.079V9.58984H365.079ZM366.618 -0.410156H355.079V19.5898H366.618V-0.410156ZM376.618 20.9231V9.58984H356.618V20.9231H376.618ZM366.618 30.9231H382V10.9231H366.618V30.9231ZM372 20.9231V81.9487H392V20.9231H372ZM382 71.9487H366.618V91.9487H382V71.9487ZM376.618 90.6668V81.9487H356.618V90.6668H376.618ZM355.079 100.667H366.618V80.6668H355.079V100.667ZM365.079 102V90.6668H345.079V102H365.079ZM25.6359 112H355.079V92H25.6359V112ZM15.6359 90.6668V102H35.6359V90.6668H15.6359ZM16.665 100.667H25.6359V80.6668H16.665V100.667ZM6.66498 81.9487V90.6668H26.665V81.9487H6.66498ZM16.665 71.9487H0V91.9487H16.665V71.9487ZM10 81.9487V20.9231H-10V81.9487H10ZM0 30.9231H16.665V10.9231H0V30.9231ZM6.66498 9.58984V20.9231H26.665V9.58984H6.66498ZM25.6359 -0.410156H16.665V19.5898H25.6359V-0.410156ZM15.6359 0V9.58984H35.6359V0H15.6359Z" fill="black" mask="url(#path-1-inside-1_74_77)"/>
</svg>
