<svg width="325" height="289" viewBox="0 0 325 289" fill="none" xmlns="http://www.w3.org/2000/svg">
<path fill-rule="evenodd" clip-rule="evenodd" d="M184.375 0H262.5V16.083H184.375V0ZM168.75 32.1661V16.083H184.375L184.375 32.1661H168.75ZM153.125 48.2491V32.1661H168.75L168.75 48.2491H153.125ZM153.125 128.664H137.5V48.2491H153.125V128.664ZM168.75 144.747H153.125V128.664H168.75V144.747ZM168.75 176.914V160.83L168.75 144.747H184.375V160.83H200V176.914H184.375H168.75ZM153.125 192.997H168.75L168.75 176.914H153.125V192.997ZM137.5 209.08V192.997H153.125V209.08H137.5ZM137.5 209.08V241.246H309.375V257.329H137.5H121.875V209.08H137.5ZM278.125 32.1661H262.5L262.5 16.083H278.125V32.1661ZM293.75 48.2491H278.125L278.125 32.1661H293.75V48.2491ZM293.75 128.664L293.75 48.2491H309.375V128.664H293.75ZM278.125 144.747V128.664H293.75L293.75 144.747H278.125ZM278.125 176.914H262.5H246.875V160.83H262.5V144.747H278.125L278.125 160.83V176.914ZM293.75 192.997H278.125L278.125 176.914H293.75V192.997ZM293.75 192.997H309.375V209.08H293.75L293.75 192.997ZM309.375 209.08H325V257.329H309.375V209.08Z" fill="black"/>
<path fill-rule="evenodd" clip-rule="evenodd" d="M184.375 16.083H262.5V32.1661H184.375V16.083ZM168.75 48.2491H184.375L184.375 32.1661H168.75V48.2491ZM168.75 48.2491V96.4982H153.125V48.2491L168.75 48.2491ZM278.125 48.2491H262.5L262.5 32.1661H278.125V48.2491ZM278.125 48.2491H293.75V64.3322H278.125V48.2491ZM153.125 112.581H168.75V128.664H153.125V112.581ZM168.75 128.664H184.375V144.747H168.75V128.664ZM168.75 176.913H184.375V192.997H168.75V176.913ZM153.125 209.08V192.997H168.75V209.08H153.125ZM153.125 209.08V241.246H137.5V209.08H153.125Z" fill="#D9D9D9"/>
<path fill-rule="evenodd" clip-rule="evenodd" d="M184.375 32.166H262.5L262.5 48.2491H278.125V144.747H262.5L262.5 160.83H246.875V176.913H278.125V192.997H293.75V209.08H309.375V241.246H153.125V209.08H168.75V192.997H184.375V176.913H200V160.83H184.375V128.664H168.75V112.581H153.125V96.4982H168.75V48.2491H184.375V32.166ZM293.75 64.3321H278.125V128.664H293.75V64.3321Z" fill="#959595"/>
<path fill-rule="evenodd" clip-rule="evenodd" d="M62.5 0H140.625V16.083H62.5V0ZM46.875 32.1661V16.083H62.5L62.5 32.1661H46.875ZM31.25 48.2491V32.1661H46.875L46.875 48.2491H31.25ZM31.25 128.664H15.625V48.2491H31.25V128.664ZM46.875 144.747H31.25V128.664H46.875V144.747ZM46.875 176.914V160.83L46.875 144.747H62.5V160.83H78.125V176.914H62.5H46.875ZM31.25 192.997H46.875L46.875 176.914H31.25V192.997ZM15.625 209.08V192.997H31.25V209.08H15.625ZM15.625 209.08V241.246H187.5V257.329H15.625H0V209.08H15.625ZM156.25 32.1661H140.625L140.625 16.083H156.25V32.1661ZM171.875 48.2491H156.25L156.25 32.1661H171.875V48.2491ZM171.875 128.664L171.875 48.2491H187.5V128.664H171.875ZM156.25 144.747V128.664H171.875L171.875 144.747H156.25ZM156.25 176.914H140.625H125V160.83H140.625V144.747H156.25L156.25 160.83V176.914ZM171.875 192.997H156.25L156.25 176.914H171.875V192.997ZM171.875 192.997H187.5V209.08H171.875L171.875 192.997ZM187.5 209.08H203.125V257.329H187.5V209.08Z" fill="black"/>
<path fill-rule="evenodd" clip-rule="evenodd" d="M62.5 16.083H140.625V32.1661H62.5V16.083ZM46.875 48.2491H62.5L62.5 32.1661H46.875V48.2491ZM46.875 48.2491V96.4982H31.25V48.2491L46.875 48.2491ZM156.25 48.2491H140.625L140.625 32.1661H156.25V48.2491ZM156.25 48.2491H171.875V64.3322H156.25V48.2491ZM31.25 112.581H46.875V128.664H31.25V112.581ZM46.875 128.664H62.5V144.747H46.875V128.664ZM46.875 176.913H62.5V192.997H46.875V176.913ZM31.25 209.08V192.997H46.875V209.08H31.25ZM31.25 209.08V241.246H15.625V209.08H31.25Z" fill="#D9D9D9"/>
<path fill-rule="evenodd" clip-rule="evenodd" d="M62.5 32.166H140.625L140.625 48.2491H156.25V144.747H140.625L140.625 160.83H125V176.913H156.25V192.997H171.875V209.08H187.5V241.246H31.25V209.08H46.875V192.997H62.5V176.913H78.125V160.83H62.5V128.664H46.875V112.581H31.25V96.4982H46.875V48.2491H62.5V32.166ZM171.875 64.3321H156.25V128.664H171.875V64.3321Z" fill="#959595"/>
<path fill-rule="evenodd" clip-rule="evenodd" d="M123.438 31.6709H201.563V47.7539H123.438V31.6709ZM107.813 63.837V47.7539H123.438L123.438 63.837H107.813ZM92.1875 79.92V63.837H107.813L107.812 79.92H92.1875ZM92.1875 160.335H76.5625V79.92H92.1875V160.335ZM107.812 176.418H92.1875V160.335H107.812V176.418ZM107.813 208.584V192.501L107.812 176.418H123.438V192.501H139.062V208.584H123.438H107.813ZM92.1875 224.667H107.812L107.813 208.584H92.1875V224.667ZM76.5625 240.751V224.667H92.1875V240.751H76.5625ZM76.5625 240.751V272.917H248.437V289H76.5625H60.9375V240.751H76.5625ZM217.188 63.837H201.562L201.563 47.7539H217.188V63.837ZM232.813 79.92H217.188L217.188 63.837H232.813V79.92ZM232.812 160.335L232.813 79.92H248.437V160.335H232.812ZM217.188 176.418V160.335H232.812L232.813 176.418H217.188ZM217.188 208.584H201.562H185.938V192.501H201.562V176.418H217.188L217.188 192.501V208.584ZM232.813 224.667H217.188L217.188 208.584H232.813V224.667ZM232.813 224.667H248.437V240.751H232.812L232.813 224.667ZM248.438 240.751H264.063V289H248.438V240.751Z" fill="black"/>
<path fill-rule="evenodd" clip-rule="evenodd" d="M123.438 47.7539H201.563V63.837H123.438V47.7539ZM107.812 79.92H123.438L123.438 63.837H107.812V79.92ZM107.812 79.92V128.169H92.1875V79.92L107.812 79.92ZM217.188 79.92H201.562L201.563 63.837H217.188V79.92ZM217.188 79.92H232.812V96.0031H217.188V79.92ZM92.1875 144.252H107.812V160.335H92.1875V144.252ZM107.812 160.335H123.438V176.418H107.812V160.335ZM107.812 208.584H123.438V224.667H107.812V208.584ZM92.1875 240.75V224.667H107.812V240.75H92.1875ZM92.1875 240.75V272.917H76.5625V240.75H92.1875Z" fill="#D9D9D9"/>
<path fill-rule="evenodd" clip-rule="evenodd" d="M123.438 63.8369H201.563L201.562 79.92H217.187V176.418H201.562L201.563 192.501H185.938V208.584H217.188V224.667H232.812V240.75H248.438V272.917H92.1875V240.75H107.812V224.667H123.438V208.584H139.062V192.501H123.438V160.335H107.812V144.252H92.1875V128.169H107.812V79.92H123.438V63.8369ZM232.812 96.003H217.188V160.335H232.812V96.003Z" fill="#959595"/>
</svg>
