<svg width="50" height="65" viewBox="0 0 50 65" fill="none" xmlns="http://www.w3.org/2000/svg">
<path fill-rule="evenodd" clip-rule="evenodd" d="M15.3846 0H34.6154V4.0625H15.3846V0ZM11.5385 8.125V4.0625H15.3846L15.3846 8.125H11.5385ZM7.69231 12.1875V8.125H11.5385L11.5385 12.1875H7.69231ZM7.69231 32.5H3.84615V12.1875H7.69231V32.5ZM11.5385 36.5625H7.69231V32.5H11.5385V36.5625ZM11.5385 44.6875V40.625L11.5385 36.5625H15.3846V40.625H19.2308V44.6875H15.3846H11.5385ZM7.69231 48.75H11.5385L11.5385 44.6875H7.69231V48.75ZM3.84615 52.8125V48.75H7.69231V52.8125H3.84615ZM3.84615 52.8125V60.9375H46.1538V65H3.84615H0V52.8125H3.84615ZM34.6154 4.0625H38.4615V8.125H34.6154L34.6154 4.0625ZM38.4615 8.125H42.3077V12.1875H38.4615V8.125ZM42.3077 32.5L42.3077 12.1875H46.1538V32.5H42.3077ZM42.3077 32.5L42.3077 36.5625H38.4615V32.5H42.3077ZM38.4615 36.5625H34.6154V40.625H30.7692V44.6875H34.6154H38.4615V40.625V36.5625ZM38.4615 44.6875H42.3077V48.75H38.4615V44.6875ZM42.3077 48.75H46.1538V52.8125H42.3077L42.3077 48.75ZM46.1539 52.8125H50V65H46.1539V52.8125Z" fill="black"/>
<path fill-rule="evenodd" clip-rule="evenodd" d="M15.3842 4.0625H34.6149V8.125H15.3842V4.0625ZM11.538 12.1875H15.3842L15.3842 8.125H11.538V12.1875ZM11.538 12.1875V24.375H7.69186V12.1875H11.538ZM38.4611 12.1875H34.6149L34.6149 8.125H38.4611V12.1875ZM38.4611 12.1875H42.3072V16.25H38.4611V12.1875ZM7.69186 28.4375H11.538V32.5H7.69186V28.4375ZM11.538 32.5H15.3842V36.5625H11.538V32.5ZM11.538 44.6875H15.3842V48.75H11.538V44.6875ZM7.69186 52.8125V48.75H11.538V52.8125H7.69186ZM7.69186 52.8125V60.9375H3.8457V52.8125H7.69186Z" fill="#D9D9D9"/>
<path fill-rule="evenodd" clip-rule="evenodd" d="M15.3837 8.125H34.6145L34.6145 12.1875H38.4606L38.4606 16.25H42.3068V32.5H38.4606L38.4606 36.5625H34.6145L34.6145 40.625H30.7683V44.6875H38.4606V48.75H42.3068V52.8125H46.153V60.9375H7.69141V52.8125H11.5376V48.75H15.3837V44.6875H19.2299V40.625H15.3837V32.5H11.5376L11.5376 28.4375H7.69141V24.375H11.5376L11.5376 12.1875H15.3837V8.125Z" fill="#959595"/>
</svg>
