<svg width="1333" height="636" viewBox="0 0 1333 636" fill="none" xmlns="http://www.w3.org/2000/svg">
<mask id="path-1-inside-1_674_4324" fill="white">
<path fill-rule="evenodd" clip-rule="evenodd" d="M97.5428 0H1212.89V24.4092H1281.95V58H1333V563H1281.95V595.318H1212.89V636H97.5428V595.318H45.7469V563H0V58H45.7469V24.4092H97.5428V0Z"/>
</mask>
<path fill-rule="evenodd" clip-rule="evenodd" d="M97.5428 0H1212.89V24.4092H1281.95V58H1333V563H1281.95V595.318H1212.89V636H97.5428V595.318H45.7469V563H0V58H45.7469V24.4092H97.5428V0Z" fill="#D9D9D9" fill-opacity="0.9"/>
<path d="M1212.89 0H1232.89V-20H1212.89V0ZM97.5428 0V-20H77.5428V0H97.5428ZM1212.89 24.4092H1192.89V44.4092H1212.89V24.4092ZM1281.95 24.4092H1301.95V4.40918H1281.95V24.4092ZM1281.95 58H1261.95V78H1281.95V58ZM1333 58H1353V38H1333V58ZM1333 563V583H1353V563H1333ZM1281.95 563V543H1261.95V563H1281.95ZM1281.95 595.318V615.318H1301.95V595.318H1281.95ZM1212.89 595.318V575.318H1192.89V595.318H1212.89ZM1212.89 636V656H1232.89V636H1212.89ZM97.5428 636H77.5428V656H97.5428V636ZM97.5428 595.318H117.543V575.318H97.5428V595.318ZM45.7469 595.318H25.7469V615.318H45.7469V595.318ZM45.7469 563H65.7469V543H45.7469V563ZM0 563H-20V583H0V563ZM0 58V38H-20V58H0ZM45.7469 58V78H65.7469V58H45.7469ZM45.7469 24.4092V4.40918H25.7469V24.4092H45.7469ZM97.5428 24.4092V44.4092H117.543V24.4092H97.5428ZM1212.89 -20H97.5428V20H1212.89V-20ZM1232.89 24.4092V0H1192.89V24.4092H1232.89ZM1281.95 4.40918H1212.89V44.4092H1281.95V4.40918ZM1301.95 58V24.4092H1261.95V58H1301.95ZM1281.95 78H1333V38H1281.95V78ZM1313 58V563H1353V58H1313ZM1333 543H1281.95V583H1333V543ZM1301.95 595.318V563H1261.95V595.318H1301.95ZM1212.89 615.318H1281.95V575.318H1212.89V615.318ZM1232.89 636V595.318H1192.89V636H1232.89ZM97.5428 656H1212.89V616H97.5428V656ZM77.5428 595.318V636H117.543V595.318H77.5428ZM45.7469 615.318H97.5428V575.318H45.7469V615.318ZM25.7469 563V595.318H65.7469V563H25.7469ZM45.7469 543H0V583H45.7469V543ZM20 563V58H-20V563H20ZM0 78H45.7469V38H0V78ZM25.7469 24.4092V58H65.7469V24.4092H25.7469ZM97.5428 4.40918H45.7469V44.4092H97.5428V4.40918ZM77.5428 0V24.4092H117.543V0H77.5428Z" fill="black" mask="url(#path-1-inside-1_674_4324)"/>
</svg>
