<svg width="326" height="84" viewBox="0 0 326 84" fill="none" xmlns="http://www.w3.org/2000/svg">
<mask id="path-1-inside-1_74_561" fill="white">
<path fill-rule="evenodd" clip-rule="evenodd" d="M21.8777 0H303.025V7.89752H312.873V17.2308H326V67.4872H312.873V74.6667H303.025V84H21.8777V74.6667H14.2219V67.4872H0V17.2308H14.2219V7.89752H21.8777V0Z"/>
</mask>
<path fill-rule="evenodd" clip-rule="evenodd" d="M21.8777 0H303.025V7.89752H312.873V17.2308H326V67.4872H312.873V74.6667H303.025V84H21.8777V74.6667H14.2219V67.4872H0V17.2308H14.2219V7.89752H21.8777V0Z" fill="#65A6F1"/>
<path d="M303.025 0H313.025V-10H303.025V0ZM21.8777 0V-10H11.8777V0H21.8777ZM303.025 7.89752H293.025V17.8975H303.025V7.89752ZM312.873 7.89752H322.873V-2.10248H312.873V7.89752ZM312.873 17.2308H302.873V27.2308H312.873V17.2308ZM326 17.2308H336V7.23077H326V17.2308ZM326 67.4872V77.4872H336V67.4872H326ZM312.873 67.4872V57.4872H302.873V67.4872H312.873ZM312.873 74.6667V84.6667H322.873V74.6667H312.873ZM303.025 74.6667V64.6667H293.025V74.6667H303.025ZM303.025 84V94H313.025V84H303.025ZM21.8777 84H11.8777V94H21.8777V84ZM21.8777 74.6667H31.8777V64.6667H21.8777V74.6667ZM14.2219 74.6667H4.22195V84.6667H14.2219V74.6667ZM14.2219 67.4872H24.2219V57.4872H14.2219V67.4872ZM0 67.4872H-10V77.4872H0V67.4872ZM0 17.2308V7.23077H-10V17.2308H0ZM14.2219 17.2308V27.2308H24.2219V17.2308H14.2219ZM14.2219 7.89752V-2.10248H4.22195V7.89752H14.2219ZM21.8777 7.89752V17.8975H31.8777V7.89752H21.8777ZM303.025 -10H21.8777V10H303.025V-10ZM313.025 7.89752V0H293.025V7.89752H313.025ZM312.873 -2.10248H303.025V17.8975H312.873V-2.10248ZM322.873 17.2308V7.89752H302.873V17.2308H322.873ZM312.873 27.2308H326V7.23077H312.873V27.2308ZM316 17.2308V67.4872H336V17.2308H316ZM326 57.4872H312.873V77.4872H326V57.4872ZM322.873 74.6667V67.4872H302.873V74.6667H322.873ZM303.025 84.6667H312.873V64.6667H303.025V84.6667ZM313.025 84V74.6667H293.025V84H313.025ZM21.8777 94H303.025V74H21.8777V94ZM11.8777 74.6667V84H31.8777V74.6667H11.8777ZM14.2219 84.6667H21.8777V64.6667H14.2219V84.6667ZM4.22195 67.4872V74.6667H24.2219V67.4872H4.22195ZM14.2219 57.4872H0V77.4872H14.2219V57.4872ZM10 67.4872V17.2308H-10V67.4872H10ZM0 27.2308H14.2219V7.23077H0V27.2308ZM4.22195 7.89752V17.2308H24.2219V7.89752H4.22195ZM21.8777 -2.10248H14.2219V17.8975H21.8777V-2.10248ZM11.8777 0V7.89752H31.8777V0H11.8777Z" fill="black" mask="url(#path-1-inside-1_74_561)"/>
</svg>
