<?xml version="1.0" standalone="no"?>
<!DOCTYPE svg PUBLIC "-//W3C//DTD SVG 20010904//EN"
 "http://www.w3.org/TR/2001/REC-SVG-20010904/DTD/svg10.dtd">
<svg version="1.0" xmlns="http://www.w3.org/2000/svg"
 width="76.000000pt" height="84.000000pt" viewBox="0 0 76.000000 84.000000"
 preserveAspectRatio="xMidYMid meet">

<g transform="translate(0.000000,84.000000) scale(0.100000,-0.100000)"
fill="#000000" stroke="none">
<path d="M320 820 c0 -17 -7 -20 -40 -20 -33 0 -40 -3 -40 -20 0 -13 -7 -20
-20 -20 -13 0 -20 -7 -20 -20 0 -13 -7 -20 -20 -20 -18 0 -20 -7 -20 -60 0
-53 -2 -60 -20 -60 -18 0 -20 -7 -20 -60 0 -53 2 -60 20 -60 13 0 20 -7 20
-20 0 -13 7 -20 20 -20 13 0 20 -7 20 -20 0 -13 7 -20 20 -20 13 0 20 -7 20
-20 0 -13 -7 -20 -20 -20 -13 0 -20 -7 -20 -20 0 -13 -7 -20 -20 -20 -18 0
-20 -7 -20 -60 0 -53 2 -60 20 -60 13 0 20 -7 20 -20 0 -13 7 -20 20 -20 18 0
20 -7 20 -80 l0 -80 60 0 60 0 0 60 0 60 60 0 60 0 0 -60 0 -60 60 0 60 0 0
80 c0 73 2 80 20 80 13 0 20 7 20 20 0 13 7 20 20 20 18 0 20 7 20 60 0 53 -2
60 -20 60 -13 0 -20 7 -20 20 0 13 -7 20 -20 20 -13 0 -20 7 -20 20 0 13 7 20
20 20 13 0 20 7 20 20 0 13 7 20 20 20 19 0 20 7 20 140 0 133 -1 140 -20 140
-13 0 -20 7 -20 20 0 13 -7 20 -20 20 -13 0 -20 7 -20 20 0 17 -7 20 -40 20
-33 0 -40 3 -40 20 0 19 -7 20 -100 20 -93 0 -100 -1 -100 -20z m200 -120 c0
-17 7 -20 40 -20 33 0 40 -3 40 -20 0 -13 7 -20 20 -20 19 0 20 -7 20 -100 0
-93 -1 -100 -20 -100 -13 0 -20 -7 -20 -20 0 -19 -7 -20 -140 -20 -133 0 -140
1 -140 20 0 13 -7 20 -20 20 -13 0 -20 7 -20 20 0 13 -7 20 -20 20 -17 0 -20
7 -20 40 0 33 3 40 20 40 13 0 20 7 20 20 0 13 7 20 20 20 13 0 20 7 20 20 0
13 7 20 20 20 13 0 20 7 20 20 0 18 7 20 60 20 53 0 60 2 60 20 0 13 7 20 20
20 13 0 20 -7 20 -20z m-320 -160 c0 -53 -2 -60 -20 -60 -18 0 -20 7 -20 60 0
53 2 60 20 60 18 0 20 -7 20 -60z m360 -260 l0 -80 -100 0 -100 0 0 60 c0 53
-2 60 -20 60 -13 0 -20 7 -20 20 0 19 7 20 120 20 l120 0 0 -80z m-280 -60 c0
-17 -7 -20 -40 -20 -33 0 -40 3 -40 20 0 17 7 20 40 20 33 0 40 -3 40 -20z
m360 0 c0 -13 -7 -20 -20 -20 -13 0 -20 7 -20 20 0 13 7 20 20 20 13 0 20 -7
20 -20z m-320 -160 c0 -13 -7 -20 -20 -20 -13 0 -20 7 -20 20 0 13 7 20 20 20
13 0 20 -7 20 -20z m240 0 c0 -13 -7 -20 -20 -20 -13 0 -20 7 -20 20 0 13 7
20 20 20 13 0 20 -7 20 -20z"/>
<path d="M360 540 c0 -53 2 -60 20 -60 18 0 20 7 20 60 0 53 -2 60 -20 60 -18
0 -20 -7 -20 -60z"/>
<path d="M560 540 c0 -53 2 -60 20 -60 18 0 20 7 20 60 0 53 -2 60 -20 60 -18
0 -20 -7 -20 -60z"/>
<path d="M480 500 c0 -13 7 -20 20 -20 13 0 20 7 20 20 0 13 -7 20 -20 20 -13
0 -20 -7 -20 -20z"/>
</g>
</svg>
