<svg width="356" height="84" viewBox="0 0 356 84" fill="none" xmlns="http://www.w3.org/2000/svg">
<mask id="path-1-inside-1_672_4280" fill="white">
<path fill-rule="evenodd" clip-rule="evenodd" d="M23.891 0H330.911V7.89752H341.665V17.2308H356V67.4872H341.665V74.6667H330.911V84H23.891V74.6667H15.5307V67.4872H0V17.2308H15.5307V7.89752H23.891V0Z"/>
</mask>
<path fill-rule="evenodd" clip-rule="evenodd" d="M23.891 0H330.911V7.89752H341.665V17.2308H356V67.4872H341.665V74.6667H330.911V84H23.891V74.6667H15.5307V67.4872H0V17.2308H15.5307V7.89752H23.891V0Z" fill="#65A6F1"/>
<path d="M330.911 0H340.911V-10H330.911V0ZM23.891 0V-10H13.891V0H23.891ZM330.911 7.89752H320.911V17.8975H330.911V7.89752ZM341.665 7.89752H351.665V-2.10248H341.665V7.89752ZM341.665 17.2308H331.665V27.2308H341.665V17.2308ZM356 17.2308H366V7.23077H356V17.2308ZM356 67.4872V77.4872H366V67.4872H356ZM341.665 67.4872V57.4872H331.665V67.4872H341.665ZM341.665 74.6667V84.6667H351.665V74.6667H341.665ZM330.911 74.6667V64.6667H320.911V74.6667H330.911ZM330.911 84V94H340.911V84H330.911ZM23.891 84H13.891V94H23.891V84ZM23.891 74.6667H33.891V64.6667H23.891V74.6667ZM15.5307 74.6667H5.53071V84.6667H15.5307V74.6667ZM15.5307 67.4872H25.5307V57.4872H15.5307V67.4872ZM0 67.4872H-10V77.4872H0V67.4872ZM0 17.2308V7.23077H-10V17.2308H0ZM15.5307 17.2308V27.2308H25.5307V17.2308H15.5307ZM15.5307 7.89752V-2.10248H5.53071V7.89752H15.5307ZM23.891 7.89752V17.8975H33.891V7.89752H23.891ZM330.911 -10H23.891V10H330.911V-10ZM340.911 7.89752V0H320.911V7.89752H340.911ZM341.665 -2.10248H330.911V17.8975H341.665V-2.10248ZM351.665 17.2308V7.89752H331.665V17.2308H351.665ZM341.665 27.2308H356V7.23077H341.665V27.2308ZM346 17.2308V67.4872H366V17.2308H346ZM356 57.4872H341.665V77.4872H356V57.4872ZM351.665 74.6667V67.4872H331.665V74.6667H351.665ZM330.911 84.6667H341.665V64.6667H330.911V84.6667ZM340.911 84V74.6667H320.911V84H340.911ZM23.891 94H330.911V74H23.891V94ZM13.891 74.6667V84H33.891V74.6667H13.891ZM15.5307 84.6667H23.891V64.6667H15.5307V84.6667ZM5.53071 67.4872V74.6667H25.5307V67.4872H5.53071ZM15.5307 57.4872H0V77.4872H15.5307V57.4872ZM10 67.4872V17.2308H-10V67.4872H10ZM0 27.2308H15.5307V7.23077H0V27.2308ZM5.53071 7.89752V17.2308H25.5307V7.89752H5.53071ZM23.891 -2.10248H15.5307V17.8975H23.891V-2.10248ZM13.891 0V7.89752H33.891V0H13.891Z" fill="black" mask="url(#path-1-inside-1_672_4280)"/>
</svg>
