<svg width="547" height="621" viewBox="0 0 547 621" fill="none" xmlns="http://www.w3.org/2000/svg">
<mask id="path-1-inside-1_307_41429" fill="white">
<path fill-rule="evenodd" clip-rule="evenodd" d="M39.8073 2.04821L494.965 0.198794L495.062 23.9559L523.248 23.8414L523.38 56.5318L544.211 56.4472L546.207 547.908L525.377 547.992L525.505 579.443L497.319 579.558L497.48 619.147L42.3223 620.996L42.1614 581.407L21.0265 581.493L20.8988 550.042L2.22629 550.118L0.22936 58.6575L18.9018 58.5816L18.769 25.8912L39.9039 25.8054L39.8073 2.04821Z"/>
</mask>
<path fill-rule="evenodd" clip-rule="evenodd" d="M39.8073 2.04821L494.965 0.198794L495.062 23.9559L523.248 23.8414L523.38 56.5318L544.211 56.4472L546.207 547.908L525.377 547.992L525.505 579.443L497.319 579.558L497.48 619.147L42.3223 620.996L42.1614 581.407L21.0265 581.493L20.8988 550.042L2.22629 550.118L0.22936 58.6575L18.9018 58.5816L18.769 25.8912L39.9039 25.8054L39.8073 2.04821Z" fill="#D9D9D9" fill-opacity="0.9"/>
<path d="M494.965 0.198794L514.965 0.11753L514.884 -19.8823L494.884 -19.801L494.965 0.198794ZM39.8073 2.04821L39.7261 -17.9516L19.7262 -17.8704L19.8075 2.12948L39.8073 2.04821ZM495.062 23.9559L475.062 24.0372L475.143 44.037L495.143 43.9558L495.062 23.9559ZM523.248 23.8414L543.247 23.7602L543.166 3.76032L523.166 3.84158L523.248 23.8414ZM523.38 56.5318L503.381 56.6131L503.462 76.6129L523.462 76.5316L523.38 56.5318ZM544.211 56.4472L564.21 56.3659L564.129 36.3661L544.129 36.4473L544.211 56.4472ZM546.207 547.908L546.289 567.907L566.289 567.826L566.207 547.826L546.207 547.908ZM525.377 547.992L525.296 527.992L505.296 528.074L505.377 548.073L525.377 547.992ZM525.505 579.443L525.586 599.443L545.586 599.362L545.505 579.362L525.505 579.443ZM497.319 579.558L497.238 559.558L477.238 559.639L477.32 579.639L497.319 579.558ZM497.48 619.147L497.562 639.147L517.561 639.066L517.48 619.066L497.48 619.147ZM42.3223 620.996L22.3224 621.078L22.4037 641.078L42.4035 640.996L42.3223 620.996ZM42.1614 581.407L62.1613 581.326L62.08 561.326L42.0802 561.407L42.1614 581.407ZM21.0265 581.493L1.02671 581.574L1.10797 601.574L21.1078 601.493L21.0265 581.493ZM20.8988 550.042L40.8986 549.961L40.8173 529.961L20.8175 530.042L20.8988 550.042ZM2.22629 550.118L-17.7735 550.199L-17.6923 570.199L2.30755 570.118L2.22629 550.118ZM0.22936 58.6575L0.148096 38.6577L-19.8517 38.7389L-19.7705 58.7388L0.22936 58.6575ZM18.9018 58.5816L18.9831 78.5815L38.9829 78.5002L38.9017 58.5004L18.9018 58.5816ZM18.769 25.8912L18.6877 5.8914L-1.3121 5.97267L-1.23084 25.9725L18.769 25.8912ZM39.9039 25.8054L39.9851 45.8052L59.985 45.7239L59.9037 25.7241L39.9039 25.8054ZM494.884 -19.801L39.7261 -17.9516L39.8886 22.048L495.047 20.1986L494.884 -19.801ZM515.062 23.8747L514.965 0.11753L474.965 0.280058L475.062 24.0372L515.062 23.8747ZM523.166 3.84158L494.981 3.95611L495.143 43.9558L523.329 43.8413L523.166 3.84158ZM543.38 56.4505L543.247 23.7602L503.248 23.9227L503.381 56.6131L543.38 56.4505ZM523.462 76.5316L544.292 76.447L544.129 36.4473L523.299 36.532L523.462 76.5316ZM524.211 56.5284L526.208 547.989L566.207 547.826L564.21 56.3659L524.211 56.5284ZM546.126 527.908L525.296 527.992L525.459 567.992L546.289 567.907L546.126 527.908ZM545.505 579.362L545.377 547.911L505.377 548.073L505.505 579.524L545.505 579.362ZM497.401 599.557L525.586 599.443L525.424 559.443L497.238 559.558L497.401 599.557ZM517.48 619.066L517.319 579.476L477.32 579.639L477.48 619.228L517.48 619.066ZM42.4035 640.996L497.562 639.147L497.399 599.147L42.241 600.997L42.4035 640.996ZM22.1616 581.488L22.3224 621.078L62.3221 620.915L62.1613 581.326L22.1616 581.488ZM21.1078 601.493L42.2427 601.407L42.0802 561.407L20.9453 561.493L21.1078 601.493ZM0.898916 550.123L1.02671 581.574L41.0264 581.412L40.8986 549.961L0.898916 550.123ZM20.8175 530.042L2.14502 530.118L2.30755 570.118L20.98 570.042L20.8175 530.042ZM22.2261 550.037L20.2292 58.5762L-19.7705 58.7388L-17.7735 550.199L22.2261 550.037ZM0.310625 78.6573L18.9831 78.5815L18.8206 38.5818L0.148096 38.6577L0.310625 78.6573ZM-1.23084 25.9725L-1.09801 58.6629L38.9017 58.5004L38.7688 25.81L-1.23084 25.9725ZM39.8226 5.80552L18.6877 5.8914L18.8503 45.8911L39.9851 45.8052L39.8226 5.80552ZM19.8075 2.12948L19.904 25.8866L59.9037 25.7241L59.8072 1.96695L19.8075 2.12948Z" fill="black" mask="url(#path-1-inside-1_307_41429)"/>
</svg>
