<svg width="269" height="219" viewBox="0 0 269 219" fill="none" xmlns="http://www.w3.org/2000/svg">
<mask id="path-1-inside-1_376_8763" fill="white">
<path fill-rule="evenodd" clip-rule="evenodd" d="M19.6201 1.01012L243.956 0.0985896L243.99 8.46174L257.883 8.40529L257.929 19.9126L268.195 19.8709L268.898 192.873L258.632 192.914L258.677 203.986L244.785 204.042L244.841 217.978L20.5054 218.89L20.4488 204.954L10.0325 204.996L9.98756 193.925L0.783688 193.962L0.0807386 20.9603L9.28461 20.9229L9.23785 9.41559L19.6541 9.37327L19.6201 1.01012Z"/>
</mask>
<path fill-rule="evenodd" clip-rule="evenodd" d="M19.6201 1.01012L243.956 0.0985896L243.99 8.46174L257.883 8.40529L257.929 19.9126L268.195 19.8709L268.898 192.873L258.632 192.914L258.677 203.986L244.785 204.042L244.841 217.978L20.5054 218.89L20.4488 204.954L10.0325 204.996L9.98756 193.925L0.783688 193.962L0.0807386 20.9603L9.28461 20.9229L9.23785 9.41559L19.6541 9.37327L19.6201 1.01012Z" fill="#D9D9D9" fill-opacity="0.9"/>
<path d="M243.956 0.0985896L263.956 0.0173253L263.875 -19.9825L243.875 -19.9012L243.956 0.0985896ZM19.6201 1.01012L19.5388 -18.9897L-0.460988 -18.9084L-0.379723 1.09139L19.6201 1.01012ZM243.99 8.46174L223.99 8.543L224.072 28.5428L244.071 28.4616L243.99 8.46174ZM257.883 8.40529L277.883 8.32402L277.801 -11.6758L257.801 -11.5945L257.883 8.40529ZM257.929 19.9126L237.93 19.9939L238.011 39.9937L258.011 39.9124L257.929 19.9126ZM268.195 19.8709L288.195 19.7896L288.114 -0.210225L268.114 -0.128961L268.195 19.8709ZM268.898 192.873L268.98 212.872L288.979 212.791L288.898 192.791L268.898 192.873ZM258.632 192.914L258.551 172.914L238.551 172.996L238.633 192.996L258.632 192.914ZM258.677 203.986L258.759 223.986L278.758 223.904L278.677 203.904L258.677 203.986ZM244.785 204.042L244.704 184.042L224.704 184.124L224.785 204.123L244.785 204.042ZM244.841 217.978L244.923 237.978L264.922 237.897L264.841 217.897L244.841 217.978ZM20.5054 218.89L0.505575 218.971L0.586839 238.971L20.5867 238.889L20.5054 218.89ZM20.4488 204.954L40.4486 204.872L40.3674 184.873L20.3675 184.954L20.4488 204.954ZM10.0325 204.996L-9.96729 205.077L-9.88603 225.077L10.1138 224.996L10.0325 204.996ZM9.98756 193.925L29.9874 193.843L29.9061 173.844L9.90629 173.925L9.98756 193.925ZM0.783688 193.962L-19.2161 194.043L-19.1349 214.043L0.864952 213.962L0.783688 193.962ZM0.0807386 20.9603L-0.000525735 0.960456L-20.0004 1.04172L-19.9191 21.0416L0.0807386 20.9603ZM9.28461 20.9229L9.36587 40.9227L29.3657 40.8415L29.2844 20.8416L9.28461 20.9229ZM9.23785 9.41559L9.15659 -10.5842L-10.8432 -10.503L-10.762 9.49686L9.23785 9.41559ZM19.6541 9.37327L19.7354 29.3731L39.7352 29.2918L39.6539 9.292L19.6541 9.37327ZM243.875 -19.9012L19.5388 -18.9897L19.7014 21.01L244.037 20.0984L243.875 -19.9012ZM263.99 8.38047L263.956 0.0173253L223.956 0.179854L223.99 8.543L263.99 8.38047ZM257.801 -11.5945L243.909 -11.5381L244.071 28.4616L257.964 28.4051L257.801 -11.5945ZM277.929 19.8313L277.883 8.32402L237.883 8.48655L237.93 19.9939L277.929 19.8313ZM258.011 39.9124L268.277 39.8707L268.114 -0.128961L257.848 -0.0872473L258.011 39.9124ZM248.196 19.9521L248.899 192.954L288.898 192.791L288.195 19.7896L248.196 19.9521ZM268.817 172.873L258.551 172.914L258.714 212.914L268.98 212.872L268.817 172.873ZM278.677 203.904L278.632 192.833L238.633 192.996L238.678 204.067L278.677 203.904ZM244.866 224.042L258.759 223.986L258.596 183.986L244.704 184.042L244.866 224.042ZM264.841 217.897L264.785 203.961L224.785 204.123L224.842 218.059L264.841 217.897ZM20.5867 238.889L244.923 237.978L244.76 197.978L20.4241 198.89L20.5867 238.889ZM0.44895 205.035L0.505575 218.971L40.5052 218.808L40.4486 204.872L0.44895 205.035ZM10.1138 224.996L20.5301 224.954L20.3675 184.954L9.95128 184.996L10.1138 224.996ZM-10.0123 194.006L-9.96729 205.077L30.0324 204.915L29.9874 193.843L-10.0123 194.006ZM9.90629 173.925L0.702423 173.962L0.864952 213.962L10.0688 213.924L9.90629 173.925ZM20.7835 193.881L20.0806 20.879L-19.9191 21.0416L-19.2161 194.043L20.7835 193.881ZM0.162003 40.9601L9.36587 40.9227L9.20334 0.923058L-0.000525735 0.960456L0.162003 40.9601ZM-10.762 9.49686L-10.7152 21.0042L29.2844 20.8416L29.2377 9.33433L-10.762 9.49686ZM19.5728 -10.6266L9.15659 -10.5842L9.31912 29.4154L19.7354 29.3731L19.5728 -10.6266ZM-0.379723 1.09139L-0.345742 9.45453L39.6539 9.292L39.6199 0.928858L-0.379723 1.09139Z" fill="black" mask="url(#path-1-inside-1_376_8763)"/>
</svg>
