<svg width="530" height="100" viewBox="0 0 530 100" fill="none" xmlns="http://www.w3.org/2000/svg">
<mask id="path-1-inside-1_512_3448" fill="white">
<path fill-rule="evenodd" clip-rule="evenodd" d="M503.5 0H26.5V10H13.25V20H0V80H13.25V90H26.5V100H503.5V90H516.75V80H530V20H516.75V10H503.5V0Z"/>
</mask>
<path fill-rule="evenodd" clip-rule="evenodd" d="M503.5 0H26.5V10H13.25V20H0V80H13.25V90H26.5V100H503.5V90H516.75V80H530V20H516.75V10H503.5V0Z" fill="#CC0000"/>
<path d="M26.5 0V-10H16.5V0H26.5ZM503.5 0H513.5V-10H503.5V0ZM26.5 10V20H36.5V10H26.5ZM13.25 10V0H3.25V10H13.25ZM13.25 20V30H23.25V20H13.25ZM0 20V10H-10V20H0ZM0 80H-10V90H0V80ZM13.25 80H23.25V70H13.25V80ZM13.25 90H3.25V100H13.25V90ZM26.5 90H36.5V80H26.5V90ZM26.5 100H16.5V110H26.5V100ZM503.5 100V110H513.5V100H503.5ZM503.5 90V80H493.5V90H503.5ZM516.75 90V100H526.75V90H516.75ZM516.75 80V70H506.75V80H516.75ZM530 80V90H540V80H530ZM530 20H540V10H530V20ZM516.75 20H506.75V30H516.75V20ZM516.75 10H526.75V0H516.75V10ZM503.5 10H493.5V20H503.5V10ZM26.5 10H503.5V-10H26.5V10ZM36.5 10V0H16.5V10H36.5ZM26.5 0H13.25V20H26.5V0ZM3.25 10V20H23.25V10H3.25ZM13.25 10H0V30H13.25V10ZM-10 20V80H10V20H-10ZM0 90H13.25V70H0V90ZM3.25 80V90H23.25V80H3.25ZM13.25 100H26.5V80H13.25V100ZM36.5 100V90H16.5V100H36.5ZM503.5 90H26.5V110H503.5V90ZM493.5 90V100H513.5V90H493.5ZM503.5 100H516.75V80H503.5V100ZM526.75 90V80H506.75V90H526.75ZM516.75 90H530V70H516.75V90ZM540 80V20H520V80H540ZM530 10H516.75V30H530V10ZM526.75 20V10H506.75V20H526.75ZM516.75 0H503.5V20H516.75V0ZM493.5 0V10H513.5V0H493.5Z" fill="black" mask="url(#path-1-inside-1_512_3448)"/>
</svg>
