<svg width="80" height="100" viewBox="0 0 80 100" fill="none" xmlns="http://www.w3.org/2000/svg">
<mask id="path-1-inside-1_74_215" fill="white">
<path fill-rule="evenodd" clip-rule="evenodd" d="M22.8613 0H57.147V4.25673H61.7104V10.6369H68.5686V42.5523H61.7104V46.8106H57.147V53.1923H22.8613V46.8106H15.9961V42.5523H11.4258V10.6369H15.9961V4.25673H22.8613V0ZM11.4258 59.5757H68.5686V65.9603H73.1437V72.3405H80V78.7229V82.979V99.9998H0V82.979V78.7229V72.3405H4.57227V65.9603H11.4258V59.5757Z"/>
</mask>
<path fill-rule="evenodd" clip-rule="evenodd" d="M22.8613 0H57.147V4.25673H61.7104V10.6369H68.5686V42.5523H61.7104V46.8106H57.147V53.1923H22.8613V46.8106H15.9961V42.5523H11.4258V10.6369H15.9961V4.25673H22.8613V0ZM11.4258 59.5757H68.5686V65.9603H73.1437V72.3405H80V78.7229V82.979V99.9998H0V82.979V78.7229V72.3405H4.57227V65.9603H11.4258V59.5757Z" fill="#D9D9D9"/>
<path d="M57.147 0H62.147V-5H57.147V0ZM22.8613 0V-5H17.8613V0H22.8613ZM57.147 4.25673H52.147V9.25673H57.147V4.25673ZM61.7104 4.25673H66.7104V-0.743273H61.7104V4.25673ZM61.7104 10.6369H56.7104V15.6369H61.7104V10.6369ZM68.5686 10.6369H73.5686V5.63694H68.5686V10.6369ZM68.5686 42.5523V47.5523H73.5686V42.5523H68.5686ZM61.7104 42.5523V37.5523H56.7104V42.5523H61.7104ZM61.7104 46.8106V51.8106H66.7104V46.8106H61.7104ZM57.147 46.8106V41.8106H52.147V46.8106H57.147ZM57.147 53.1923V58.1923H62.147V53.1923H57.147ZM22.8613 53.1923H17.8613V58.1923H22.8613V53.1923ZM22.8613 46.8106H27.8613V41.8106H22.8613V46.8106ZM15.9961 46.8106H10.9961V51.8106H15.9961V46.8106ZM15.9961 42.5523H20.9961V37.5523H15.9961V42.5523ZM11.4258 42.5523H6.42578V47.5523H11.4258V42.5523ZM11.4258 10.6369V5.63694H6.42578V10.6369H11.4258ZM15.9961 10.6369V15.6369H20.9961V10.6369H15.9961ZM15.9961 4.25673V-0.743273H10.9961V4.25673H15.9961ZM22.8613 4.25673V9.25673H27.8613V4.25673H22.8613ZM68.5686 59.5757H73.5686V54.5757H68.5686V59.5757ZM11.4258 59.5757V54.5757H6.42578V59.5757H11.4258ZM68.5686 65.9603H63.5686V70.9603H68.5686V65.9603ZM73.1437 65.9603H78.1437V60.9603H73.1437V65.9603ZM73.1437 72.3405H68.1437V77.3405H73.1437V72.3405ZM80 72.3405H85V67.3405H80V72.3405ZM80 99.9998V105H85V99.9998H80ZM0 99.9998H-5V105H0V99.9998ZM0 72.3405V67.3405H-5V72.3405H0ZM4.57227 72.3405V77.3405H9.57227V72.3405H4.57227ZM4.57227 65.9603V60.9603H-0.427734V65.9603H4.57227ZM11.4258 65.9603V70.9603H16.4258V65.9603H11.4258ZM57.147 -5H22.8613V5H57.147V-5ZM62.147 4.25673V0H52.147V4.25673H62.147ZM61.7104 -0.743273H57.147V9.25673H61.7104V-0.743273ZM66.7104 10.6369V4.25673H56.7104V10.6369H66.7104ZM68.5686 5.63694H61.7104V15.6369H68.5686V5.63694ZM73.5686 42.5523V10.6369H63.5686V42.5523H73.5686ZM61.7104 47.5523H68.5686V37.5523H61.7104V47.5523ZM66.7104 46.8106V42.5523H56.7104V46.8106H66.7104ZM57.147 51.8106H61.7104V41.8106H57.147V51.8106ZM62.147 53.1923V46.8106H52.147V53.1923H62.147ZM22.8613 58.1923H57.147V48.1923H22.8613V58.1923ZM17.8613 46.8106V53.1923H27.8613V46.8106H17.8613ZM15.9961 51.8106H22.8613V41.8106H15.9961V51.8106ZM10.9961 42.5523V46.8106H20.9961V42.5523H10.9961ZM11.4258 47.5523H15.9961V37.5523H11.4258V47.5523ZM6.42578 10.6369V42.5523H16.4258V10.6369H6.42578ZM15.9961 5.63694H11.4258V15.6369H15.9961V5.63694ZM10.9961 4.25673V10.6369H20.9961V4.25673H10.9961ZM22.8613 -0.743273H15.9961V9.25673H22.8613V-0.743273ZM17.8613 0V4.25673H27.8613V0H17.8613ZM68.5686 54.5757H11.4258V64.5757H68.5686V54.5757ZM73.5686 65.9603V59.5757H63.5686V65.9603H73.5686ZM73.1437 60.9603H68.5686V70.9603H73.1437V60.9603ZM78.1437 72.3405V65.9603H68.1437V72.3405H78.1437ZM80 67.3405H73.1437V77.3405H80V67.3405ZM85 78.7229V72.3405H75V78.7229H85ZM75 78.7229V82.979H85V78.7229H75ZM75 82.979V99.9998H85V82.979H75ZM80 94.9998H0V105H80V94.9998ZM5 99.9998V82.979H-5V99.9998H5ZM5 82.979V78.7229H-5V82.979H5ZM-5 72.3405V78.7229H5V72.3405H-5ZM4.57227 67.3405H0V77.3405H4.57227V67.3405ZM-0.427734 65.9603V72.3405H9.57227V65.9603H-0.427734ZM11.4258 60.9603H4.57227V70.9603H11.4258V60.9603ZM6.42578 59.5757V65.9603H16.4258V59.5757H6.42578Z" fill="black" mask="url(#path-1-inside-1_74_215)"/>
</svg>
