<svg width="542" height="106" viewBox="0 0 542 106" fill="none" xmlns="http://www.w3.org/2000/svg">
<rect y="41.6426" width="23.2286" height="22.7143" fill="black"/>
<rect x="3.87109" y="37.8574" width="19.3571" height="30.2857" fill="black"/>
<rect x="23.2285" y="30.2861" width="7.74286" height="45.4286" fill="black"/>
<rect x="30.9707" y="22.7139" width="7.74286" height="60.5714" fill="black"/>
<rect x="38.7148" y="15.1426" width="7.74286" height="75.7143" fill="black"/>
<rect x="46.457" y="7.57129" width="7.74286" height="90.8571" fill="black"/>
<rect x="54.1992" width="7.74286" height="106" fill="black"/>
<rect x="30.9707" y="37.8574" width="7.74286" height="7.57143" fill="#D9D9D9"/>
<rect x="38.7148" y="30.2861" width="7.74286" height="7.57143" fill="#D9D9D9"/>
<rect x="46.457" y="22.7139" width="7.74286" height="7.57143" fill="#D9D9D9"/>
<rect x="89.043" y="49.2139" width="452.957" height="7.57143" fill="#747474"/>
<path fill-rule="evenodd" clip-rule="evenodd" d="M81.467 41.6426H96.6161V43.6177H98.637V45.5929H100.656V60.4066H98.637V62.3817H96.6161V64.3569H81.467V62.3817H79.4481V60.4066H77.4277V45.5929H79.4481V43.6177H81.467V41.6426Z" fill="black"/>
<rect x="77.4277" y="49.2139" width="11.6143" height="7.57143" fill="black"/>
</svg>
