<svg width="1292" height="794" viewBox="0 0 1292 794" fill="none" xmlns="http://www.w3.org/2000/svg">
<mask id="path-1-inside-1_665_4189" fill="white">
<path fill-rule="evenodd" clip-rule="evenodd" d="M94.5449 0H1175.58V30.4725H1242.52V72.4087H1292V702.865H1242.52V743.21H1175.58V794H94.5449V743.21H44.3418V702.865H0V72.4087H44.3418V30.4725H94.5449V0Z"/>
</mask>
<path fill-rule="evenodd" clip-rule="evenodd" d="M94.5449 0H1175.58V30.4725H1242.52V72.4087H1292V702.865H1242.52V743.21H1175.58V794H94.5449V743.21H44.3418V702.865H0V72.4087H44.3418V30.4725H94.5449V0Z" fill="#D9D9D9" fill-opacity="0.9"/>
<path d="M1175.58 0H1195.58V-20H1175.58V0ZM94.5449 0V-20H74.5449V0H94.5449ZM1175.58 30.4725H1155.58V50.4725H1175.58V30.4725ZM1242.52 30.4725H1262.52V10.4725H1242.52V30.4725ZM1242.52 72.4087H1222.52V92.4087H1242.52V72.4087ZM1292 72.4087H1312V52.4087H1292V72.4087ZM1292 702.865V722.865H1312V702.865H1292ZM1242.52 702.865V682.865H1222.52V702.865H1242.52ZM1242.52 743.21V763.21H1262.52V743.21H1242.52ZM1175.58 743.21V723.21H1155.58V743.21H1175.58ZM1175.58 794V814H1195.58V794H1175.58ZM94.5449 794H74.5449V814H94.5449V794ZM94.5449 743.21H114.545V723.21H94.5449V743.21ZM44.3418 743.21H24.3418V763.21H44.3418V743.21ZM44.3418 702.865H64.3418V682.865H44.3418V702.865ZM0 702.865H-20V722.865H0V702.865ZM0 72.4087V52.4087H-20V72.4087H0ZM44.3418 72.4087V92.4087H64.3418V72.4087H44.3418ZM44.3418 30.4725V10.4725H24.3418V30.4725H44.3418ZM94.5449 30.4725V50.4725H114.545V30.4725H94.5449ZM1175.58 -20H94.5449V20H1175.58V-20ZM1195.58 30.4725V0H1155.58V30.4725H1195.58ZM1242.52 10.4725H1175.58V50.4725H1242.52V10.4725ZM1262.52 72.4087V30.4725H1222.52V72.4087H1262.52ZM1242.52 92.4087H1292V52.4087H1242.52V92.4087ZM1272 72.4087V702.865H1312V72.4087H1272ZM1292 682.865H1242.52V722.865H1292V682.865ZM1262.52 743.21V702.865H1222.52V743.21H1262.52ZM1175.58 763.21H1242.52V723.21H1175.58V763.21ZM1195.58 794V743.21H1155.58V794H1195.58ZM94.5449 814H1175.58V774H94.5449V814ZM74.5449 743.21V794H114.545V743.21H74.5449ZM44.3418 763.21H94.5449V723.21H44.3418V763.21ZM24.3418 702.865V743.21H64.3418V702.865H24.3418ZM44.3418 682.865H0V722.865H44.3418V682.865ZM20 702.865V72.4087H-20V702.865H20ZM0 92.4087H44.3418V52.4087H0V92.4087ZM24.3418 30.4725V72.4087H64.3418V30.4725H24.3418ZM94.5449 10.4725H44.3418V50.4725H94.5449V10.4725ZM74.5449 0V30.4725H114.545V0H74.5449Z" fill="black" mask="url(#path-1-inside-1_665_4189)"/>
</svg>
