<svg width="422" height="67" viewBox="0 0 422 67" fill="none" xmlns="http://www.w3.org/2000/svg">
<path fill-rule="evenodd" clip-rule="evenodd" d="M17 3H18H32H33H48H63H78H93H108H123H138H153H168H183H198H213H228H243H258H273H288H303H318H333H348H363H378H391H393H406V13.1667H419V23.3333V33.5V43.6667V53.8333L405 53.8333V64H392H390H377H362H347H332H317H302H287H272H257H242H227H212H197H182H167H152H137H122H107H92H77H62H47H32H17V61.2889V53.8333H3V43.6667V33.5V23.3333V13.1667H17V7.74444V3Z" fill="#9C9C9C" fill-opacity="0.72"/>
<path d="M17 3V0.5H14.5V3H17ZM406 3H408.5V0.5H406V3ZM406 13.1667H403.5V15.6667H406V13.1667ZM419 13.1667H421.5V10.6667H419V13.1667ZM419 53.8333V56.3333H421.5V53.8333H419ZM405 53.8333V51.3333H402.5V53.8333H405ZM405 64V66.5H407.5V64H405ZM17 64H14.5V66.5H17V64ZM17 53.8333H19.5V51.3333H17V53.8333ZM3 53.8333H0.5V56.3333H3V53.8333ZM3 13.1667V10.6667H0.5V13.1667H3ZM17 13.1667V15.6667H19.5V13.1667H17ZM18 0.5H17V5.5H18V0.5ZM32 0.5H18V5.5H32V0.5ZM33 0.5H32V5.5H33V0.5ZM48 0.5H33V5.5H48V0.5ZM63 0.5H48V5.5H63V0.5ZM78 0.5H63V5.5H78V0.5ZM93 0.5H78V5.5H93V0.5ZM108 0.5H93V5.5H108V0.5ZM123 0.5H108V5.5H123V0.5ZM138 0.5H123V5.5H138V0.5ZM153 0.5H138V5.5H153V0.5ZM168 0.5H153V5.5H168V0.5ZM183 0.5H168V5.5H183V0.5ZM198 0.5H183V5.5H198V0.5ZM213 0.5H198V5.5H213V0.5ZM228 0.5H213V5.5H228V0.5ZM243 0.5H228V5.5H243V0.5ZM258 0.5H243V5.5H258V0.5ZM273 0.5H258V5.5H273V0.5ZM288 0.5H273V5.5H288V0.5ZM303 0.5H288V5.5H303V0.5ZM318 0.5H303V5.5H318V0.5ZM333 0.5H318V5.5H333V0.5ZM348 0.5H333V5.5H348V0.5ZM363 0.5H348V5.5H363V0.5ZM378 0.5H363V5.5H378V0.5ZM391 0.5H378V5.5H391V0.5ZM393 0.5H391V5.5H393V0.5ZM406 0.5H393V5.5H406V0.5ZM408.5 13.1667V3H403.5V13.1667H408.5ZM419 10.6667H406V15.6667H419V10.6667ZM421.5 23.3333V13.1667H416.5V23.3333H421.5ZM421.5 33.5V23.3333H416.5V33.5H421.5ZM421.5 43.6667V33.5H416.5V43.6667H421.5ZM421.5 53.8333V43.6667H416.5V53.8333H421.5ZM405 56.3333L419 56.3333V51.3333L405 51.3333V56.3333ZM407.5 64V53.8333H402.5V64H407.5ZM392 66.5H405V61.5H392V66.5ZM390 66.5H392V61.5H390V66.5ZM377 66.5H390V61.5H377V66.5ZM362 66.5H377V61.5H362V66.5ZM347 66.5H362V61.5H347V66.5ZM332 66.5H347V61.5H332V66.5ZM317 66.5H332V61.5H317V66.5ZM302 66.5H317V61.5H302V66.5ZM287 66.5H302V61.5H287V66.5ZM272 66.5H287V61.5H272V66.5ZM257 66.5H272V61.5H257V66.5ZM242 66.5H257V61.5H242V66.5ZM227 66.5H242V61.5H227V66.5ZM212 66.5H227V61.5H212V66.5ZM197 66.5H212V61.5H197V66.5ZM182 66.5H197V61.5H182V66.5ZM167 66.5H182V61.5H167V66.5ZM152 66.5H167V61.5H152V66.5ZM137 66.5H152V61.5H137V66.5ZM122 66.5H137V61.5H122V66.5ZM107 66.5H122V61.5H107V66.5ZM92 66.5H107V61.5H92V66.5ZM77 66.5H92V61.5H77V66.5ZM62 66.5H77V61.5H62V66.5ZM47 66.5H62V61.5H47V66.5ZM32 66.5H47V61.5H32V66.5ZM17 66.5H32V61.5H17V66.5ZM14.5 61.2889V64H19.5V61.2889H14.5ZM14.5 53.8333V61.2889H19.5V53.8333H14.5ZM3 56.3333H17V51.3333H3V56.3333ZM0.5 43.6667V53.8333H5.5V43.6667H0.5ZM0.5 33.5V43.6667H5.5V33.5H0.5ZM0.5 23.3333V33.5H5.5V23.3333H0.5ZM0.5 13.1667V23.3333H5.5V13.1667H0.5ZM17 10.6667H3V15.6667H17V10.6667ZM14.5 7.74444V13.1667H19.5V7.74444H14.5ZM14.5 3V7.74444H19.5V3H14.5Z" fill="black"/>
</svg>
