<svg width="754" height="636" viewBox="0 0 754 636" fill="none" xmlns="http://www.w3.org/2000/svg">
<mask id="path-1-inside-1_55_646" fill="white">
<path fill-rule="evenodd" clip-rule="evenodd" d="M55.1749 0H686.059V24.4094H725.123V58H754V563H725.123V595.318H686.059V636H55.1749V595.318H25.8768V563H0V58H25.8768V24.4094H55.1749V0Z"/>
</mask>
<path fill-rule="evenodd" clip-rule="evenodd" d="M55.1749 0H686.059V24.4094H725.123V58H754V563H725.123V595.318H686.059V636H55.1749V595.318H25.8768V563H0V58H25.8768V24.4094H55.1749V0Z" fill="#D9D9D9" fill-opacity="0.9"/>
<path d="M686.059 0H706.059V-20H686.059V0ZM55.1749 0V-20H35.1749V0H55.1749ZM686.059 24.4094H666.059V44.4094H686.059V24.4094ZM725.123 24.4094H745.123V4.40939H725.123V24.4094ZM725.123 58H705.123V78H725.123V58ZM754 58H774V38H754V58ZM754 563V583H774V563H754ZM725.123 563V543H705.123V563H725.123ZM725.123 595.318V615.318H745.123V595.318H725.123ZM686.059 595.318V575.318H666.059V595.318H686.059ZM686.059 636V656H706.059V636H686.059ZM55.1749 636H35.1749V656H55.1749V636ZM55.1749 595.318H75.1749V575.318H55.1749V595.318ZM25.8768 595.318H5.87684V615.318H25.8768V595.318ZM25.8768 563H45.8768V543H25.8768V563ZM0 563H-20V583H0V563ZM0 58V38H-20V58H0ZM25.8768 58V78H45.8768V58H25.8768ZM25.8768 24.4094V4.40939H5.87684V24.4094H25.8768ZM55.1749 24.4094V44.4094H75.1749V24.4094H55.1749ZM686.059 -20H55.1749V20H686.059V-20ZM706.059 24.4094V0H666.059V24.4094H706.059ZM725.123 4.40939H686.059V44.4094H725.123V4.40939ZM745.123 58V24.4094H705.123V58H745.123ZM725.123 78H754V38H725.123V78ZM734 58V563H774V58H734ZM754 543H725.123V583H754V543ZM745.123 595.318V563H705.123V595.318H745.123ZM686.059 615.318H725.123V575.318H686.059V615.318ZM706.059 636V595.318H666.059V636H706.059ZM55.1749 656H686.059V616H55.1749V656ZM35.1749 595.318V636H75.1749V595.318H35.1749ZM25.8768 615.318H55.1749V575.318H25.8768V615.318ZM5.87684 563V595.318H45.8768V563H5.87684ZM25.8768 543H0V583H25.8768V543ZM20 563V58H-20V563H20ZM0 78H25.8768V38H0V78ZM5.87684 24.4094V58H45.8768V24.4094H5.87684ZM55.1749 4.40939H25.8768V44.4094H55.1749V4.40939ZM35.1749 0V24.4094H75.1749V0H35.1749Z" fill="black" mask="url(#path-1-inside-1_55_646)"/>
</svg>
