<svg width="289" height="87" viewBox="0 0 289 87" fill="none" xmlns="http://www.w3.org/2000/svg">
<mask id="path-1-inside-1_672_4287" fill="white">
<path fill-rule="evenodd" clip-rule="evenodd" d="M274.55 0H14.45V8.7H7.225V17.4H0V69.6H7.225V78.3H14.45V87H274.55V78.3H281.775V69.6H289V17.4H281.775V8.7H274.55V0Z"/>
</mask>
<path fill-rule="evenodd" clip-rule="evenodd" d="M274.55 0H14.45V8.7H7.225V17.4H0V69.6H7.225V78.3H14.45V87H274.55V78.3H281.775V69.6H289V17.4H281.775V8.7H274.55V0Z" fill="#CC0000"/>
<path d="M14.45 0V-10H4.45V0H14.45ZM274.55 0H284.55V-10H274.55V0ZM14.45 8.7V18.7H24.45V8.7H14.45ZM7.225 8.7V-1.3H-2.775V8.7H7.225ZM7.225 17.4V27.4H17.225V17.4H7.225ZM0 17.4V7.4H-10V17.4H0ZM0 69.6H-10V79.6H0V69.6ZM7.225 69.6H17.225V59.6H7.225V69.6ZM7.225 78.3H-2.775V88.3H7.225V78.3ZM14.45 78.3H24.45V68.3H14.45V78.3ZM14.45 87H4.45V97H14.45V87ZM274.55 87V97H284.55V87H274.55ZM274.55 78.3V68.3H264.55V78.3H274.55ZM281.775 78.3V88.3H291.775V78.3H281.775ZM281.775 69.6V59.6H271.775V69.6H281.775ZM289 69.6V79.6H299V69.6H289ZM289 17.4H299V7.4H289V17.4ZM281.775 17.4H271.775V27.4H281.775V17.4ZM281.775 8.7H291.775V-1.3H281.775V8.7ZM274.55 8.7H264.55V18.7H274.55V8.7ZM14.45 10H274.55V-10H14.45V10ZM24.45 8.7V0H4.45V8.7H24.45ZM14.45 -1.3H7.225V18.7H14.45V-1.3ZM-2.775 8.7V17.4H17.225V8.7H-2.775ZM7.225 7.4H0V27.4H7.225V7.4ZM-10 17.4V69.6H10V17.4H-10ZM0 79.6H7.225V59.6H0V79.6ZM-2.775 69.6V78.3H17.225V69.6H-2.775ZM7.225 88.3H14.45V68.3H7.225V88.3ZM24.45 87V78.3H4.45V87H24.45ZM274.55 77H14.45V97H274.55V77ZM264.55 78.3V87H284.55V78.3H264.55ZM274.55 88.3H281.775V68.3H274.55V88.3ZM291.775 78.3V69.6H271.775V78.3H291.775ZM281.775 79.6H289V59.6H281.775V79.6ZM299 69.6V17.4H279V69.6H299ZM289 7.4H281.775V27.4H289V7.4ZM291.775 17.4V8.7H271.775V17.4H291.775ZM281.775 -1.3H274.55V18.7H281.775V-1.3ZM264.55 0V8.7H284.55V0H264.55Z" fill="black" mask="url(#path-1-inside-1_672_4287)"/>
</svg>
