<svg width="232" height="85" viewBox="0 0 232 85" fill="none" xmlns="http://www.w3.org/2000/svg">
<mask id="path-1-inside-1_307_41448" fill="white">
<path fill-rule="evenodd" clip-rule="evenodd" d="M16.4301 0.131836H215.648V8.02935H222.626V17.3626H231.928V67.619H222.626V74.7986H215.648V84.1318H16.4301V74.7986H11.0052V67.619H0.927734V17.3626H11.0052V8.02935H16.4301V0.131836Z"/>
</mask>
<path fill-rule="evenodd" clip-rule="evenodd" d="M16.4301 0.131836H215.648V8.02935H222.626V17.3626H231.928V67.619H222.626V74.7986H215.648V84.1318H16.4301V74.7986H11.0052V67.619H0.927734V17.3626H11.0052V8.02935H16.4301V0.131836Z" fill="#65A6F1"/>
<path d="M215.648 0.131836H225.648V-9.86816H215.648V0.131836ZM16.4301 0.131836V-9.86816H6.43005V0.131836H16.4301ZM215.648 8.02935H205.648V18.0294H215.648V8.02935ZM222.626 8.02935H232.626V-1.97065H222.626V8.02935ZM222.626 17.3626H212.626V27.3626H222.626V17.3626ZM231.928 17.3626H241.928V7.36261H231.928V17.3626ZM231.928 67.619V77.619H241.928V67.619H231.928ZM222.626 67.619V57.619H212.626V67.619H222.626ZM222.626 74.7986V84.7986H232.626V74.7986H222.626ZM215.648 74.7986V64.7986H205.648V74.7986H215.648ZM215.648 84.1318V94.1318H225.648V84.1318H215.648ZM16.4301 84.1318H6.43005V94.1318H16.4301V84.1318ZM16.4301 74.7986H26.43V64.7986H16.4301V74.7986ZM11.0052 74.7986H1.00525V84.7986H11.0052V74.7986ZM11.0052 67.619H21.0052V57.619H11.0052V67.619ZM0.927734 67.619H-9.07227V77.619H0.927734V67.619ZM0.927734 17.3626V7.36261H-9.07227V17.3626H0.927734ZM11.0052 17.3626V27.3626H21.0052V17.3626H11.0052ZM11.0052 8.02935V-1.97065H1.00525V8.02935H11.0052ZM16.4301 8.02935V18.0294H26.43V8.02935H16.4301ZM215.648 -9.86816H16.4301V10.1318H215.648V-9.86816ZM225.648 8.02935V0.131836H205.648V8.02935H225.648ZM222.626 -1.97065H215.648V18.0294H222.626V-1.97065ZM232.626 17.3626V8.02935H212.626V17.3626H232.626ZM222.626 27.3626H231.928V7.36261H222.626V27.3626ZM221.928 17.3626V67.619H241.928V17.3626H221.928ZM231.928 57.619H222.626V77.619H231.928V57.619ZM232.626 74.7986V67.619H212.626V74.7986H232.626ZM215.648 84.7986H222.626V64.7986H215.648V84.7986ZM225.648 84.1318V74.7986H205.648V84.1318H225.648ZM16.4301 94.1318H215.648V74.1318H16.4301V94.1318ZM6.43005 74.7986V84.1318H26.43V74.7986H6.43005ZM11.0052 84.7986H16.4301V64.7986H11.0052V84.7986ZM1.00525 67.619V74.7986H21.0052V67.619H1.00525ZM11.0052 57.619H0.927734V77.619H11.0052V57.619ZM10.9277 67.619V17.3626H-9.07227V67.619H10.9277ZM0.927734 27.3626H11.0052V7.36261H0.927734V27.3626ZM1.00525 8.02935V17.3626H21.0052V8.02935H1.00525ZM16.4301 -1.97065H11.0052V18.0294H16.4301V-1.97065ZM6.43005 0.131836V8.02935H26.43V0.131836H6.43005Z" fill="black" mask="url(#path-1-inside-1_307_41448)"/>
</svg>
