<svg width="800" height="66" viewBox="0 0 800 66" fill="none" xmlns="http://www.w3.org/2000/svg">
<mask id="path-1-inside-1_527_3341" fill="white">
<path fill-rule="evenodd" clip-rule="evenodd" d="M20 0H780V11H790V22H800V44H790V55H780V66H20V55H10V44H0V22H10V11H20V0Z"/>
</mask>
<path fill-rule="evenodd" clip-rule="evenodd" d="M20 0H780V11H790V22H800V44H790V55H780V66H20V55H10V44H0V22H10V11H20V0Z" fill="#D9D9D9" fill-opacity="0.85"/>
<path d="M780 0H788V-8H780V0ZM20 0V-8H12V0H20ZM780 11H772V19H780V11ZM790 11H798V3H790V11ZM790 22H782V30H790V22ZM800 22H808V14H800V22ZM800 44V52H808V44H800ZM790 44V36H782V44H790ZM790 55V63H798V55H790ZM780 55V47H772V55H780ZM780 66V74H788V66H780ZM20 66H12V74H20V66ZM20 55H28V47H20V55ZM10 55H2V63H10V55ZM10 44H18V36H10V44ZM0 44H-8V52H0V44ZM0 22V14H-8V22H0ZM10 22V30H18V22H10ZM10 11V3H2V11H10ZM20 11V19H28V11H20ZM780 -8H20V8H780V-8ZM788 11V0H772V11H788ZM780 19H790V3H780V19ZM782 11V22H798V11H782ZM800 14H790V30H800V14ZM808 44V22H792V44H808ZM790 52H800V36H790V52ZM782 44V55H798V44H782ZM790 47H780V63H790V47ZM788 66V55H772V66H788ZM20 74H780V58H20V74ZM12 55V66H28V55H12ZM20 47H10V63H20V47ZM18 55V44H2V55H18ZM0 52H10V36H0V52ZM-8 22V44H8V22H-8ZM10 14H0V30H10V14ZM18 22V11H2V22H18ZM10 19H20V3H10V19ZM12 0V11H28V0H12Z" fill="black" mask="url(#path-1-inside-1_527_3341)"/>
</svg>
