<svg width="250" height="250" viewBox="0 0 250 250" fill="none" xmlns="http://www.w3.org/2000/svg">
<mask id="path-1-inside-1_527_3324" fill="white">
<path fill-rule="evenodd" clip-rule="evenodd" d="M220 0H30V15H15V30H0V220H15V235H30V250H220V235H235V220H250V30H235V15H220V0Z"/>
</mask>
<path fill-rule="evenodd" clip-rule="evenodd" d="M220 0H30V15H15V30H0V220H15V235H30V250H220V235H235V220H250V30H235V15H220V0Z" fill="#D9D9D9" fill-opacity="0.82"/>
<path d="M30 0V-10H20V0H30ZM220 0H230V-10H220V0ZM30 15V25H40V15H30ZM15 15V5H5V15H15ZM15 30V40H25V30H15ZM0 30V20H-10V30H0ZM0 220H-10V230H0V220ZM15 220H25V210H15V220ZM15 235H5V245H15V235ZM30 235H40V225H30V235ZM30 250H20V260H30V250ZM220 250V260H230V250H220ZM220 235V225H210V235H220ZM235 235V245H245V235H235ZM235 220V210H225V220H235ZM250 220V230H260V220H250ZM250 30H260V20H250V30ZM235 30H225V40H235V30ZM235 15H245V5H235V15ZM220 15H210V25H220V15ZM30 10H220V-10H30V10ZM40 15V0H20V15H40ZM30 5H15V25H30V5ZM5 15V30H25V15H5ZM15 20H0V40H15V20ZM-10 30V220H10V30H-10ZM0 230H15V210H0V230ZM5 220V235H25V220H5ZM15 245H30V225H15V245ZM40 250V235H20V250H40ZM220 240H30V260H220V240ZM210 235V250H230V235H210ZM220 245H235V225H220V245ZM245 235V220H225V235H245ZM235 230H250V210H235V230ZM260 220V30H240V220H260ZM250 20H235V40H250V20ZM245 30V15H225V30H245ZM235 5H220V25H235V5ZM210 0V15H230V0H210Z" fill="#767676" mask="url(#path-1-inside-1_527_3324)"/>
</svg>
