<svg width="456" height="80" viewBox="0 0 456 80" fill="none" xmlns="http://www.w3.org/2000/svg">
<rect x="0.927734" y="15.7754" width="455" height="47.7129" fill="#D9D9D9"/>
<rect x="20.7109" y="7.9541" width="422.029" height="63.3564" fill="#D9D9D9"/>
<path fill-rule="evenodd" clip-rule="evenodd" d="M436.145 0.131836H20.7103V7.95362H14.1161V15.7754H7.52194H0.927734V63.4883H7.52194L14.1161 63.4883V71.3101H20.7103V79.1318H436.145V71.3101H442.739V63.4883L449.334 63.4883H455.928V15.7754H449.334H442.739V7.95362H436.145V0.131836ZM429.551 71.3101V63.4883H436.145V55.6665H449.334V23.5972H436.145V15.7754H429.551V7.95362H27.3045V15.7754H20.7103V23.5972H7.52194V55.6665H20.7103V63.4883H27.3045V71.3101H429.551Z" fill="black"/>
<path fill-rule="evenodd" clip-rule="evenodd" d="M369 25H379V35H369V25ZM389 45V35H379V45H389ZM399 45V55H389V45H399ZM409 35V45H399V35H409ZM409 35H419V25H409V35Z" fill="black"/>
</svg>
