<svg width="400" height="100" viewBox="0 0 400 100" fill="none" xmlns="http://www.w3.org/2000/svg">
<mask id="path-1-inside-1_272_5385" fill="white">
<path fill-rule="evenodd" clip-rule="evenodd" d="M380 0H20V10H10V20H0V80H10V90H20V100H380V90H390V80H400V20H390V10H380V0Z"/>
</mask>
<path fill-rule="evenodd" clip-rule="evenodd" d="M380 0H20V10H10V20H0V80H10V90H20V100H380V90H390V80H400V20H390V10H380V0Z" fill="#CC0000"/>
<path d="M20 0V-10H10V0H20ZM380 0H390V-10H380V0ZM20 10V20H30V10H20ZM10 10V0H0V10H10ZM10 20V30H20V20H10ZM0 20V10H-10V20H0ZM0 80H-10V90H0V80ZM10 80H20V70H10V80ZM10 90H0V100H10V90ZM20 90H30V80H20V90ZM20 100H10V110H20V100ZM380 100V110H390V100H380ZM380 90V80H370V90H380ZM390 90V100H400V90H390ZM390 80V70H380V80H390ZM400 80V90H410V80H400ZM400 20H410V10H400V20ZM390 20H380V30H390V20ZM390 10H400V0H390V10ZM380 10H370V20H380V10ZM20 10H380V-10H20V10ZM30 10V0H10V10H30ZM20 0H10V20H20V0ZM0 10V20H20V10H0ZM10 10H0V30H10V10ZM-10 20V80H10V20H-10ZM0 90H10V70H0V90ZM0 80V90H20V80H0ZM10 100H20V80H10V100ZM30 100V90H10V100H30ZM380 90H20V110H380V90ZM370 90V100H390V90H370ZM380 100H390V80H380V100ZM400 90V80H380V90H400ZM390 90H400V70H390V90ZM410 80V20H390V80H410ZM400 10H390V30H400V10ZM400 20V10H380V20H400ZM390 0H380V20H390V0ZM370 0V10H390V0H370Z" fill="black" mask="url(#path-1-inside-1_272_5385)"/>
</svg>
