<svg width="100" height="100" viewBox="0 0 100 100" fill="none" xmlns="http://www.w3.org/2000/svg">
<mask id="path-1-inside-1_1066_4539" fill="white">
<path fill-rule="evenodd" clip-rule="evenodd" d="M87 0H12V12.9997H0V87.9997H12V100H87V87.9997H100V12.9997H87V0Z"/>
</mask>
<path fill-rule="evenodd" clip-rule="evenodd" d="M87 0H12V12.9997H0V87.9997H12V100H87V87.9997H100V12.9997H87V0Z" fill="#D9D9D9" fill-opacity="0.6"/>
<path d="M12 0V-10H2V0H12ZM87 0H97V-10H87V0ZM12 12.9997V22.9997H22V12.9997H12ZM0 12.9997V2.99967H-10V12.9997H0ZM0 87.9997H-10V97.9997H0V87.9997ZM12 87.9997H22V77.9997H12V87.9997ZM12 100H2V110H12V100ZM87 100V110H97V100H87ZM87 87.9997V77.9997H77V87.9997H87ZM100 87.9997V97.9997H110V87.9997H100ZM100 12.9997H110V2.99967H100V12.9997ZM87 12.9997H77V22.9997H87V12.9997ZM12 10H87V-10H12V10ZM22 12.9997V0H2V12.9997H22ZM0 22.9997H12V2.99967H0V22.9997ZM10 87.9997V12.9997H-10V87.9997H10ZM12 77.9997H0V97.9997H12V77.9997ZM22 100V87.9997H2V100H22ZM87 90H12V110H87V90ZM77 87.9997V100H97V87.9997H77ZM100 77.9997H87V97.9997H100V77.9997ZM90 12.9997V87.9997H110V12.9997H90ZM87 22.9997H100V2.99967H87V22.9997ZM77 0V12.9997H97V0H77Z" fill="black" mask="url(#path-1-inside-1_1066_4539)"/>
<path d="M27.2363 38.8889V31.6667H34.4586V24.4444H63.3474V31.6667H70.5697V46.1111H63.3474V53.3333H56.1252V60.5556H41.6808V53.3333H48.903V46.1111H56.1252V31.6667H41.6808V38.8889H27.2363ZM41.6808 75V67.7778H56.1252V75H41.6808Z" fill="black"/>
</svg>
